<?xml version="1.0" standalone="no"?>
<!DOCTYPE svg PUBLIC "-//W3C//DTD SVG 1.1//EN" "http://www.w3.org/Graphics/SVG/1.1/DTD/svg11.dtd" >
<svg xmlns="http://www.w3.org/2000/svg">
<metadata>
Created by FontForge 20120731 at Thu Jul 14 00:04:33 2016
 By admin
</metadata>
<defs>
<font id="iconfont" horiz-adv-x="1024" >
  <font-face 
    font-family="iconfont"
    font-weight="500"
    font-stretch="normal"
    units-per-em="1024"
    panose-1="2 0 6 3 0 0 0 0 0 0"
    ascent="896"
    descent="-128"
    x-height="792"
    bbox="-0.4 -212 1472 896"
    underline-thickness="50"
    underline-position="-100"
    unicode-range="U+0078-E65B"
  />
<missing-glyph horiz-adv-x="374" 
d="M34 0v682h272v-682h-272zM68 34h204v614h-204v-614z" />
    <glyph glyph-name=".notdef" horiz-adv-x="374" 
d="M34 0v682h272v-682h-272zM68 34h204v614h-204v-614z" />
    <glyph glyph-name=".null" horiz-adv-x="0" 
 />
    <glyph glyph-name="nonmarkingreturn" horiz-adv-x="341" 
 />
    <glyph glyph-name="x" unicode="x" horiz-adv-x="1001" 
d="M281 543q-27 -1 -53 -1h-83q-18 0 -36.5 -6t-32.5 -18.5t-23 -32t-9 -45.5v-76h912v41q0 16 -0.5 30t-0.5 18q0 13 -5 29t-17 29.5t-31.5 22.5t-49.5 9h-133v-97h-438v97zM955 310v-52q0 -23 0.5 -52t0.5 -58t-10.5 -47.5t-26 -30t-33 -16t-31.5 -4.5q-14 -1 -29.5 -0.5
t-29.5 0.5h-32l-45 128h-439l-44 -128h-29h-34q-20 0 -45 1q-25 0 -41 9.5t-25.5 23t-13.5 29.5t-4 30v167h911zM163 247q-12 0 -21 -8.5t-9 -21.5t9 -21.5t21 -8.5q13 0 22 8.5t9 21.5t-9 21.5t-22 8.5zM316 123q-8 -26 -14 -48q-5 -19 -10.5 -37t-7.5 -25t-3 -15t1 -14.5
t9.5 -10.5t21.5 -4h37h67h81h80h64h36q23 0 34 12t2 38q-5 13 -9.5 30.5t-9.5 34.5q-5 19 -11 39h-368zM336 498v228q0 11 2.5 23t10 21.5t20.5 15.5t34 6h188q31 0 51.5 -14.5t20.5 -52.5v-227h-327z" />
    <glyph glyph-name="uniE600" unicode="&#xe600;" 
d="M931 -95q-23 -23 -55.5 -23t-55.5 23l-139 139q-91 -59 -197 -59q-100 0 -184.5 49.5t-133.5 134t-49 184t49 184t133.5 134t184.5 49.5t184.5 -49.5t133.5 -134t49 -184.5q0 -106 -58 -197l138 -139q24 -23 24 -55.5t-24 -55.5v0zM484 643q-120 0 -205 -85t-85 -205.5
t85 -205.5t205 -85t205 85t85 205.5t-85 205.5t-205 85v0zM484 643z" />
    <glyph glyph-name="uniE601" unicode="&#xe601;" 
d="M511 748q-91 0 -174 -35.5t-143 -95.5t-95.5 -142.5t-35.5 -173.5t35.5 -174t95.5 -142.5t143 -95t174 -35.5t173.5 35.5t142.5 95t95.5 142.5t35.5 174t-35.5 173.5t-95.5 142.5t-142.5 95.5t-173.5 35.5zM510.5 -58q-97.5 0 -180.5 48t-131 130.5t-48 180t48 180.5
t131 131t180.5 48t180.5 -48t131 -131t48 -180.5t-48 -180t-131 -130.5t-180.5 -48zM447 556h64v-319h-64v319zM511 301h191v-64h-191v64z" />
    <glyph glyph-name="uniE602" unicode="&#xe602;" 
d="M888 -147q0 119 -66.5 215t-173.5 138q68 37 109 105t41 148q0 120 -84 204t-202.5 84t-202.5 -84t-84 -204q0 -80 41 -148t109 -105q-107 -42 -173.5 -138t-66.5 -215h56v6v8q0 87 43 161t116.5 117t161 43t161 -43t116.5 -117t43 -161v-8v-6h56zM286 459q0 94 66 161
t159.5 67t160 -67t66.5 -161t-66.5 -160.5t-160 -66.5t-159.5 66.5t-66 160.5z" />
    <glyph glyph-name="uniE603" unicode="&#xe603;" 
d="M887 -6q-17 142 -123 238q-57 51 -130 76q35 18 63 46q77 77 77 185.5t-76.5 185t-185.5 76.5t-185.5 -76.5t-76.5 -185t77 -185.5q28 -28 63 -46q-73 -25 -130 -76q-106 -96 -123 -238q-1 -10 5.5 -18t17 -9t18.5 5t9 17q14 122 107 205q68 61 158 78q25 5 51 6
q5 -1 9 -1q5 0 10 1h1q24 -1 49 -6q90 -17 158 -78q93 -83 107 -205q1 -10 8 -16t17 -6h3q10 1 16.5 9t5.5 18zM300 539.5q0 87.5 62 149.5t150 62t150 -62t62 -149.5t-62 -149.5q-40 -40 -93 -55q-23 -6 -48 -7h-18h-1q-24 1 -47 7q-53 15 -93 55q-62 62 -62 149.5z" />
    <glyph glyph-name="uniE604" unicode="&#xe604;" 
d="M511 832q-91 0 -174 -35.5t-143 -95.5t-95.5 -142.5t-35.5 -173.5t35.5 -174t95.5 -142.5t143 -95t174 -35.5t173.5 35.5t142.5 95t95.5 142.5t35.5 174t-35.5 173.5t-95.5 142.5t-142.5 95.5t-173.5 35.5zM510.5 26q-97.5 0 -180.5 48t-131 130.5t-48 180t48 180.5
t131 131t180.5 48t180.5 -48t131 -131t48 -180.5t-48 -180t-131 -130.5t-180.5 -48zM447 640h64v-319h-64v319zM511 385h191v-64h-191v64z" />
    <glyph glyph-name="uniE605" unicode="&#xe605;" 
d="M801 253l1 346v3q-1 11 -9.5 19t-19.5 8h-348l-119 119q-83 -83 -112.5 -195t0 -223.5t112.5 -194.5t195 -112.5t223.5 0t194.5 112.5zM268 237q-30 54 -44.5 108.5t-13.5 98t9.5 83.5t22.5 69t28 50.5t24 32.5l9 11l35 -39q-3 0 -24 -29q-85 -120 -65 -292q6 -46 19 -93
zM741 313l-257 257h257v-257zM372 -44q-1 4 -1.5 19t-1 20.5t-2.5 19t-4.5 19t-8 15t-12.5 13.5t-17.5 7.5t-23.5 3.5q-14 0 -25 -3.5t-18 -8t-12 -13t-8 -15t-4.5 -19t-2 -19t-1 -20.5t-0.5 -19q-12 -26 -29.5 -38t-33 -12.5t-29.5 -1.5t-23 -12.5t-10 -39.5h391
q0 28 -9 39.5t-23.5 12.5t-30 1.5t-33 12.5t-28.5 38zM246 -40q-4 31 2 52.5t14.5 31t21 14t17.5 4.5h8q-4 -3 -11 -9t-23.5 -32.5t-28.5 -60.5z" />
    <glyph glyph-name="uniE606" unicode="&#xe606;" 
d="M528.5 779q-100.5 0 -192.5 -39.5t-158 -105.5t-105.5 -158t-39.5 -192.5t39.5 -192.5t105.5 -158.5t158 -105.5t192.5 -39t192.5 39t158.5 105.5t105.5 158.5t39 192.5t-39 192.5t-105.5 158t-158.5 105.5t-192.5 39.5zM256.5 165q-49.5 0 -84.5 35.5t-35 85t35.5 84
t85 34.5t84 -35t34.5 -84.5t-35 -84.5t-84.5 -35zM526.5 -108q-49.5 0 -84 35t-34.5 84.5t35 84.5t84.5 35t84.5 -35t35 -85t-35.5 -84.5t-85 -34.5zM476 283.5q0 21.5 15.5 37t37 15.5t37 -15.5t15.5 -37t-15.5 -37t-37 -15.5t-37 15.5t-15.5 37zM529.5 436
q-49.5 0 -84.5 35t-35 84.5t35.5 84.5t85 35t84 -35.5t34.5 -85t-35 -84t-84.5 -34.5zM799.5 163q-49.5 0 -84 35t-34.5 84.5t35 84.5t84.5 35t84.5 -35.5t35 -85t-35.5 -84t-85 -34.5z" />
    <glyph glyph-name="uniE607" unicode="&#xe607;" 
d="M522 770q-98 0 -187.5 -38t-154 -102.5t-102.5 -154t-38 -187.5t38 -187.5t102.5 -154t154 -102.5t187.5 -38t187.5 38t154 102.5t102.5 154t38 187.5t-38 187.5t-102.5 154t-154 102.5t-187.5 38zM448 63q-27 -25 -64.5 -24t-62 28.5t-22.5 64.5t30 62t65 24t61.5 -28.5
t22.5 -64.5t-30 -62zM597 78q-12 98 -77 170q-69 76 -172 95v71q135 -20 224 -118q84 -92 96 -218h-71zM774 78q-12 168 -123 290q-120 132 -303 152v71q102 -9 194 -53.5t162 -121.5q129 -142 140 -338h-70z" />
    <glyph glyph-name="uniE608" unicode="&#xe608;" 
d="M913 473q-11 0 -31.5 -2t-78.5 -18.5t-110 -45.5q-2 2 -4.5 17t-4.5 41.5t0.5 56.5t14 66.5t32.5 66.5q-2 -2 -19 -10t-33.5 -16t-41.5 -23t-46 -31q-15 18 -27 57.5t-13.5 87t17.5 87.5q-116 -66 -207 -148.5t-145 -166t-81.5 -164t-27.5 -153.5q0 -36 3 -67.5t13 -71
t27 -71.5t47.5 -64t72 -53.5t102.5 -35t137 -13.5q93 -2 150.5 18.5t100.5 55.5q46 37 73 113.5t4 148.5q-15 50 -19 96t1.5 79.5t16 61.5t24 46.5t25.5 31t20 18.5zM721 -15q-18 -31 -90.5 -59.5t-140.5 -26.5q-76 -7 -136.5 21t-81.5 69q-54 106 2 195q16 25 25 28
q-2 -3 -2 -13.5t1.5 -26.5t9 -35t19 -37.5t32.5 -36t49 -28.5q-27 33 -23.5 79.5t25 92t56 83t69.5 51.5q-37 -137 53 -230q17 -18 32 -28l7 1q27 18 58 166q34 -42 49.5 -98t11 -101t-24.5 -66zM721 -15z" />
    <glyph glyph-name="uniE609" unicode="&#xe609;" 
d="M944 321l-103 -38v17q0 34 -24 58t-58 24h-14q44 32 70 80.5t26 105.5q0 93 -66 159.5t-160 66.5q-57 0 -105.5 -26t-79.5 -71q-32 45 -80.5 71t-105.5 26q-93 0 -159.5 -66.5t-66.5 -159.5q0 -57 26 -105.5t71 -80.5h-15q-34 0 -58 -24t-24 -58v-412q0 -34 24 -58
t58 -24h659q34 0 58 24t24 58v17l103 -37q34 0 48 13.5t14 48.5v329q0 34 -14 48t-48 14zM430 438q22 -33 55 -56h-111q33 23 56 56zM100 567.5q0 59.5 42.5 102t102 42.5t101.5 -42.5t43 -101.5v-1q-1 -59 -43 -101.5t-101.5 -42.5t-102 42.5t-42.5 102zM591 77l-224 -145
q-9 -7 -20 -2q-11 4 -11 14v291q0 10 11 15q11 4 20 -2l224 -146q8 -4 8 -12t-8 -13zM615 423q-60 0 -102 42.5t-42 102t42 102t102 42.5t102 -42.5t42 -102t-42 -102t-102 -42.5z" />
    <glyph glyph-name="uniE60A" unicode="&#xe60a;" 
d="M504 -196q161 0 269 103.5t131 273.5q11 83 8.5 156.5t-12.5 135t-27.5 113t-35 90t-36 66.5t-30.5 42.5t-18 17.5q-18 -46 -38.5 -83t-39 -59.5t-39 -38t-36.5 -22.5t-33.5 -10t-28 -2t-21.5 2.5t-13 1.5q14 28 87 95l3 4q-1 -1 -11 -0.5t-28 -0.5t-42 -4.5t-55 -13.5
t-63.5 -25.5t-71 -43t-75.5 -63.5q-41 -40 -70 -88t-42.5 -95t-19 -85t-5.5 -74q0 -107 52.5 -197.5t143.5 -143t197 -52.5zM300 306q-1 -3 -2.5 -8.5t-4.5 -21t-4 -29t1 -30t8 -28t20 -18t35 -4.5q27 3 52 18t45.5 33.5t43 37t56 30.5t73.5 12q-2 -4 -6.5 -10.5t-15.5 -27
t-20 -39.5t-17.5 -44t-10.5 -44t3.5 -36t21.5 -24q22 -10 39 -13t34 4t27 14.5t32 25.5t37 29q-2 -22 -5.5 -41t-12.5 -46t-21 -48t-33.5 -43t-48.5 -35.5t-67.5 -20.5t-89.5 -3q-70 6 -126 32.5t-87.5 68.5t-41.5 92t12 107t74 110zM300 306z" />
    <glyph glyph-name="uniE60B" unicode="&#xe60b;" 
d="M928 -148h-832q-40 0 -68 28t-28 68v704q0 40 28 68t68 28h832q40 0 68 -28t28 -68v-704q0 -40 -28 -68t-68 -28zM96 684q-13 0 -22.5 -9.5t-9.5 -22.5v-704q0 -13 9.5 -22.5t22.5 -9.5h832q13 0 22.5 9.5t9.5 22.5v704q0 13 -9.5 22.5t-22.5 9.5h-832zM64 492h896v-64
h-896v64zM192 684h64v-192h-64v192zM384 684h64v-192h-64v192zM576 684h64v-192h-64v192zM768 684h64v-192h-64v192zM438 293q-54 27 -54 -43v-154q0 -69 54 -42l163 85q29 14 30.5 34t-26.5 35z" />
    <glyph glyph-name="uniE60C" unicode="&#xe60c;" 
d="M512 744q90 0 172.5 -35t142 -94.5t94.5 -142t35 -172.5t-35 -172.5t-94.5 -142t-142 -94.5t-172.5 -35t-172.5 35t-142 94.5t-94.5 142t-35 172.5t35 172.5t94.5 142t142 94.5t172.5 35zM512 812q-139 0 -257 -68.5t-186.5 -186.5t-68.5 -257t68.5 -257t186.5 -186.5
t257 -68.5t257 68.5t186.5 186.5t68.5 257t-68.5 257t-186.5 186.5t-257 68.5zM354 41q-10 0 -18 6q-20 13 -13 35l54 179l-141 110q-18 14 -10.5 35.5t30.5 21.5h172l53 175q7 20 31 20t31 -20l53 -175h172q23 0 30.5 -21.5t-10.5 -35.5l-141 -111l54 -177
q7 -22 -12.5 -35.5t-37.5 0.5l-139 107l-139 -107q-8 -7 -19 -7zM349 364l85 -66q17 -14 11 -35l-32 -103l79 61q20 15 40 0l78 -61l-31 103q-6 21 11 34l85 67h-103q-23 0 -30 23l-30 97l-30 -97q-7 -23 -30 -23h-103z" />
    <glyph glyph-name="uniE60D" unicode="&#xe60d;" 
d="M908 303h-111v20q0 35 -22.5 61.5t-56.5 32.5q-15 -38 -50 -61.5t-77 -23.5q-44 0 -79 24.5t-50 63.5h-21q-19 -49 -63 -79.5t-98 -30.5q-52 0 -94 28t-63 73q-26 -12 -42 -35.5t-16 -52.5v-269q0 -41 28.5 -69.5t69.5 -28.5h536q41 0 69.5 28.5t28.5 69.5v10h111
q21 0 36 14.5t15 35.5v139q0 21 -15 35.5t-36 14.5zM640 78h-432q-10 0 -10 10t10 10h432q9 0 9 -10t-9 -10zM640 157h-432q-10 0 -10 9.5t10 9.5h432q9 0 9 -9.5t-9 -9.5zM640 235h-432q-10 0 -10 9.5t10 9.5h432q9 0 9 -9.5t-9 -9.5zM592 361q49 0 83.5 34.5t34.5 83.5
t-34.5 83.5t-83.5 34.5t-83.5 -34.5t-34.5 -83.5t34.5 -83.5t83.5 -34.5zM592 526q20 0 34 -13.5t14 -33.5t-14 -34t-34 -14t-34 14t-14 34t14 33.5t34 13.5zM282 339q63 0 108 44.5t45 107.5t-45 108t-108 45t-108 -45t-45 -108t45 -107.5t108 -44.5zM282 554
q26 0 44.5 -18.5t18.5 -44t-18.5 -44t-44.5 -18.5t-44 18.5t-18 44t18 44t44 18.5z" />
    <glyph glyph-name="uniE60E" unicode="&#xe60e;" 
d="M989 613q-30 39 -77 57t-96 9q-43 -8 -75.5 -33.5t-50.5 -63.5q-79 32 -171 32.5t-185 -30.5q-19 39 -53 64.5t-78 31.5q-50 7 -96 -12.5t-75 -59.5q-29 -42 -30.5 -93t24.5 -96q41 -69 119 -84q-1 -4 -2 -6q-2 -8 -4 -17t-4 -19q-2 -8 -3 -18q-1 -9 -2 -19q-1 -9 -2 -19
v-19q0 -41 8 -81q7 -38 22 -75q15 -35 36 -67.5t47 -59.5t56.5 -48.5t65.5 -37.5q35 -15 72 -23q38 -8 77 -8t77 8q37 8 73 23q33 15 65 37q31 22 57 49t46 59q21 33 36 68q15 37 22 75q8 40 8 81v19q-1 7 -2 19q0 7 -2 19q-1 9 -3 18q-2 11 -4 18q-1 7 -4 18q-1 1 -1 3
l-1 3q82 16 122 89q25 46 21.5 96.5t-33.5 92.5zM945 455q-15 -27 -34.5 -42t-52.5 -17q-14 0 -26 -9.5t-14 -25.5t3 -31l6 -18l4 -18q2 -8 4 -19q2 -9 3 -18q1 -11 1 -19q1 -12 1 -20q0 -35 -7 -69q-6 -33 -19 -64.5t-30 -58.5q-18 -28 -40 -51q-23 -23 -49 -42t-56 -32
q-29 -13 -61 -20t-66 -7t-66 7q-31 7 -61 20q-29 13 -56 32q-26 18 -49 42q-22 23 -40 51q-17 27 -30 58.5t-19 64.5q-7 34 -7 69q0 10 1 20q0 8 1 19q2 9 3 18q2 10 4 19q2 8 4 18q1 2 2.5 9t3.5 14.5t4 12.5q6 19 -3.5 33.5t-29.5 13.5q-35 0 -56 15t-37 42
q-9 16 -13.5 34.5t-0.5 41.5t17 43q19 26 48.5 38t61.5 8q31 -5 54.5 -24t33.5 -48q5 -12 17 -16t21.5 -2t11.5 4q95 34 188 33.5t169 -36.5q11 -8 28.5 -5.5t23.5 18.5q10 30 32.5 49.5t53.5 25.5q32 6 61.5 -5.5t49.5 -36.5q21 -28 21 -60.5t-14 -58.5z" />
    <glyph glyph-name="uniE60F" unicode="&#xe60f;" 
d="M512 750q-91 0 -174.5 -36t-143.5 -96t-96 -143.5t-36 -174.5q0 -96 38.5 -182t107.5 -149q-73 7 -123 -18q-16 -12 -14 -29q3 -20 27 -16l7 2q7 1 13.5 2t19 3t25 2.5t29.5 0.5t33.5 -1t37 -4.5t40.5 -8.5q98 -52 209 -52q91 0 174.5 36t143.5 96t96 143.5t36 174.5
t-36 174.5t-96 143.5t-143.5 96t-174.5 36zM679.5 594q51.5 0 88.5 -36.5t37 -88.5t-37 -88.5t-88.5 -36.5t-88 36.5t-36.5 88.5t36.5 88.5t88 36.5zM353 594q52 0 88.5 -36.5t36.5 -88.5t-36.5 -88.5t-88.5 -36.5t-88.5 36.5t-36.5 88.5t36.5 88.5t88.5 36.5zM353 8
q-52 0 -88.5 37t-36.5 88.5t36.5 88t88.5 36.5t88.5 -36.5t36.5 -88t-36.5 -88.5t-88.5 -37zM512 227q-30 0 -51.5 21.5t-21.5 51.5t21.5 51.5t51.5 21.5t51.5 -21.5t21.5 -51.5t-21.5 -51.5t-51.5 -21.5zM680 8q-52 0 -88.5 37t-36.5 88.5t36.5 88t88.5 36.5t88.5 -36.5
t36.5 -88t-36.5 -88.5t-88.5 -37z" />
    <glyph glyph-name="uniE610" unicode="&#xe610;" 
d="M835 220l-256 -394q-10 -17 -28 -27.5t-39 -10.5t-39 10t-28 25l-256 394q-61 101 -61 211q0 158 113 271t271 113t271 -113t113 -271q0 -112 -61 -208zM512 716q-120 0 -204 -84t-84 -204q0 -82 45 -157l243 -374l243 374q45 75 45 157q0 120 -84 204t-204 84zM512 268
q-67 0 -113.5 46.5t-46.5 113.5t46.5 113.5t113.5 46.5t113.5 -46.5t46.5 -113.5t-46.5 -113.5t-113.5 -46.5zM512 492q-26 0 -45 -19t-19 -45t19 -45t45 -19t45 19t19 45t-19 45t-45 19z" />
    <glyph glyph-name="uniE611" unicode="&#xe611;" 
d="M893 478q-32 79 -90 140t-133 94q-78 34 -164 34t-164 -34q-12 -5 -38 -5q-12 0 -37 1q-27 2 -40 2q-58 0 -81 -25q-13 -13 -18.5 -34.5t-5.5 -44t1 -48.5q2 -63 -5 -80q-33 -81 -33 -170.5t33 -170.5q32 -79 90 -140t133 -94q79 -35 164.5 -35t164.5 35q75 33 133 94
t90 140q33 81 33 170.5t-33 170.5zM307 390q0 23 16.5 39.5t39.5 16.5t39 -16.5t16 -39.5t-16 -39.5t-39 -16.5t-39.5 16.5t-16.5 39.5zM505.5 169q-45.5 0 -77.5 32.5t-32 77.5h219q0 -45 -32 -77.5t-77.5 -32.5zM648 334q-23 0 -39 16.5t-16 39.5t16 39.5t39 16.5
t39.5 -16.5t16.5 -39.5t-16.5 -39.5t-39.5 -16.5z" />
    <glyph glyph-name="uniE612" unicode="&#xe612;" 
d="M959 78v588h-894v-588h345v-80h-149v-64h502v64h-149v80h345zM129 144v451h766v-451h-766z" />
    <glyph glyph-name="uniE613" unicode="&#xe613;" 
d="M512 -146q-91 0 -174.5 36t-144 96.5t-95.5 145.5t-33 178q1 91 38 173t98 141t145 93t176 32q88 -2 168.5 -37t139.5 -94.5t94.5 -142t35.5 -174t-35.5 -174t-95.5 -142.5t-143 -95.5t-174 -35.5zM659 132l2 5q49 133 65 176q2 5 8 7q18 5 28 21t6 34q-5 17 -19.5 27
t-31.5 8q-16 -1 -28 -14t-12 -30q0 -16 10 -29l-1 -1l-1 -1l-1 -1v-1l-1 -1l-1 -1l-1 -1l-1 -1l-1 -1l-1 -1v-1l-1 -1l-1 -1l-1 -1l-1 -1l-1 -1v-1l-1 -1l-1 -1l-1 -1l-1 -1l-1 -1l-1 -1v-1l-2 -2l-1 -1v-1l-1 -1l-1 -1l-1 -1l-1 -1l-1 -1v-1l-1 -1l-1 -1l-1 -1l-1 -1l-1 -1
l-1 -1v-1l-1 -1l-1 -1l-1 -1l-1 -1l-1 -1v-1l-1 -1l-1 -1l-1 -1l-1 -1l-1 -1l-1 -1v-1l-1 -1l-1 -1l-1 -1l-1 -1l-1 -1v-1l-1 -1l-1 -1l-1 -1l-1 -1l-1 -1l-1 -1v-1l-1 -1l-1 -1l-1 -1l-1 -1l-1 -1v-1l-1 -1q-12 68 -23 132q4 2 5 2q17 7 24.5 23t1.5 35q-5 17 -21 27t-34 7
q-29 -6 -38 -34q-8 -29 13 -50q4 -4 2 -9q-4 -14 -40 -122l-2 -5q-26 81 -45 132q16 10 20.5 27.5t-1.5 30.5q-7 15 -21.5 23.5t-30.5 6.5t-28 -14t-14 -28q-2 -18 7 -32q10 -17 28 -20q-8 -40 -27 -131l-2 2q-54 61 -61 69q-2 2 0 6q7 14 8 18q4 21 -13 38.5t-41 13.5
q-15 -4 -26 -17t-11 -29q0 -17 11 -30t27 -15q4 -1 6 -5q5 -16 35 -97q20 -56 29 -83q2 -4 5 -4q7 1 20 2.5t19 1.5q83 10 144 6q7 -1 108 -9z" />
    <glyph glyph-name="uniE614" unicode="&#xe614;" 
d="M512 812q-104 0 -199 -40.5t-163.5 -109t-109 -163.5t-40.5 -199t40.5 -199t109 -163.5t163.5 -109t199 -40.5t199 40.5t163.5 109t109 163.5t40.5 199t-40.5 199t-109 163.5t-163.5 109t-199 40.5zM725 271l-311 -177q-21 -13 -36 -4t-15 33v354q0 24 15 33t36 -4
l311 -177q22 -12 22 -29t-22 -29z" />
    <glyph glyph-name="uniE615" unicode="&#xe615;" 
d="M512 582q-94 0 -161 -67.5t-67 -163t67 -163.5t161 -68t161 68t67 163.5t-67 163t-161 67.5zM681 351.5q0 -71.5 -49.5 -122t-119.5 -50.5t-119.5 50.5t-49.5 122t49.5 122t119.5 50.5t119.5 -50.5t49.5 -122zM1013 368q-6 9 -16 23t-38.5 48.5t-59.5 66.5t-77 69.5
t-92 64.5t-104 45t-114 18t-114 -18t-104.5 -45t-92 -64.5t-76.5 -69.5t-59.5 -66.5t-38.5 -48.5t-16 -23l-11 -17l11 -16q6 -9 16 -23t38.5 -49t59.5 -66.5t76.5 -69t92 -64.5t104.5 -45t114 -18t114 18t104.5 45t92 64.5t76.5 69t59.5 66.5t38.5 49t16 23l11 16zM797 184
q-66 -56 -132 -88q-79 -37 -153 -37t-153 37q-66 32 -132 88q-86 73 -156 167q70 95 156 168q66 56 132 88q79 37 153 37t153 -37q66 -32 132 -88q86 -73 156 -168q-70 -94 -156 -167z" />
    <glyph glyph-name="uniE616" unicode="&#xe616;" 
d="M896 683h-311l87 87q4 -2 11 -2q17 0 29.5 12.5t12.5 30t-12.5 30t-30 12.5t-30 -12.5t-12.5 -29.5q0 -7 2 -11l-117 -117h-26l-117 117q2 4 2 11q0 17 -12.5 29.5t-30 12.5t-30 -12.5t-12.5 -30t12.5 -30t29.5 -12.5q7 0 11 2l87 -87h-311q-35 0 -60 -25t-25 -61v-512
q0 -35 25 -60t60 -25h85v-64q0 -10 6 -15.5t15.5 -5.5t15.5 5.5t6 15.5v21h512v-21q0 -10 6 -15.5t15.5 -5.5t15.5 5.5t6 15.5v64h85q35 0 60 25t25 60v512q0 36 -25 61t-60 25zM939 85q0 -17 -12.5 -29.5t-30.5 -12.5h-768q-18 0 -30.5 12.5t-12.5 29.5v512q0 18 12.5 30.5
t30.5 12.5h768q18 0 30.5 -12.5t12.5 -30.5v-512z" />
    <glyph glyph-name="uniE617" unicode="&#xe617;" 
d="M512 896q-139 0 -257 -68.5t-186.5 -186.5t-68.5 -257t68.5 -257t186.5 -186.5t257 -68.5t257 68.5t186.5 186.5t68.5 257t-68.5 257t-186.5 186.5t-257 68.5zM512 -89q-96 0 -183.5 37.5t-151 101t-101 151t-37.5 183.5t37.5 183.5t101 151t151 101t183.5 37.5
t183.5 -37.5t151 -101t101 -151t37.5 -183.5t-37.5 -183.5t-101 -151t-151 -101t-183.5 -37.5zM713 424q-12 13 -12 32q0 21 15.5 36.5t36.5 15.5t36.5 -15.5t15.5 -36.5q0 -20 -13 -35t-33 -17l-79 -215q-96 13 -169 13q-31 0 -61 -2.5t-62 -6t-44 -4.5l-78 215
q-19 0 -33.5 15.5t-14.5 36.5q0 22 15.5 37.5t37 15.5t37 -15.5t15.5 -37.5q0 -12 -13 -31l75 -86l32 152q-16 1 -28.5 16t-12.5 36q0 23 16 39t39 16t39.5 -16t16.5 -39q0 -14 -7 -26.5t-19 -18.5l52 -151h1l50 151q-22 17 -22 45q0 23 16.5 39t39.5 16q22 0 38.5 -16
t16.5 -39q0 -39 -38 -52l26 -152l72 85v0z" />
    <glyph glyph-name="uniE618" unicode="&#xe618;" 
d="M853 383q0 113 -66 205q-8 10 -20.5 12t-23 -5.5t-12.5 -20t5 -23.5q55 -76 55 -168.5t-55 -168.5q-7 -11 -5 -23.5t12 -20.5q9 -5 18 -5q16 0 26 13q66 92 66 205zM277 595q-10 7 -22.5 5t-20.5 -12q-66 -93 -66 -205.5t66 -204.5q9 -13 25 -13q10 0 18 5q11 8 13 20.5
t-5 23.5q-55 76 -55 168.5t55 168.5q7 11 5 23.5t-13 20.5zM841 746q-8 9 -21 10t-22.5 -7.5t-10.5 -21.5t8 -22q59 -67 90 -150.5t31 -172t-31 -171.5t-90 -150q-9 -10 -8 -23t11 -21q8 -8 20 -8q14 0 23 11q67 75 102.5 169t35.5 194t-35.5 193.5t-102.5 169.5zM108 383
q0 88 31 171t90 151q9 9 8 22t-10.5 21.5t-22.5 7.5t-22 -10q-66 -76 -101.5 -169.5t-35.5 -193.5t35.5 -194t101.5 -169q10 -11 24 -11q11 0 20 8q10 8 11 21t-8 23q-59 67 -90 150t-31 172zM514 601q-91 0 -154.5 -64t-63.5 -154q0 -47 19 -89.5t53 -73.5q10 -8 23 -7.5
t21.5 10t7.5 22.5t-10 22q-52 46 -52 116q0 64 45.5 109.5t110 45.5t110 -45.5t45.5 -110t-45.5 -110t-110.5 -45.5h-10q-22 0 -30 -21q-11 -32 -35 -56q-9 -10 -9 -22.5t9.5 -21.5t21.5 -9q14 0 23 9q25 26 41 59q86 4 147 67t61 151q0 90 -64 154t-154 64zM514 601z" />
    <glyph glyph-name="uniE619" unicode="&#xe619;" 
d="M359 60l-154 385q37 0 63 26.5t26 63.5q0 38 -26.5 64.5t-64 26.5t-64 -26.5t-26.5 -64.5q0 -37 26 -63.5t63 -26.5l-154 -385h311zM671 60l-153 566q37 1 63 27t26 64q0 37 -26.5 63.5t-64 26.5t-64 -26.5t-26.5 -63.5t25.5 -63.5t61.5 -27.5l-154 -566h312zM828 445
q37 0 63.5 26.5t26.5 63.5q0 38 -26.5 64.5t-64 26.5t-64 -26.5t-26.5 -64.5q0 -37 26 -63.5t63 -26.5l-155 -385h312zM48 23h935v-62h-935v62z" />
    <glyph glyph-name="uniE61A" unicode="&#xe61a;" 
d="M214 687h359v-121q0 -26 -17 -43.5t-41 -17.5h-188v-411h-113v593zM443 553q16 0 16 18v66h-132v-84h116zM509 487v-61h64v-47h-64v-71h58v-174q0 -18 -11.5 -30.5t-27.5 -12.5h-182v217h53v71h-61v47h61v61h110zM478 260h-42v-119h26q8 0 13 5.5t5 13.5v100h-2zM591 181
v459h95v-456h-95v-3zM704 695h103v-543q0 -24 -15.5 -42.5t-36.5 -18.5h-103v48h34q6 0 11 5.5t5 12.5v538h2z" />
    <glyph glyph-name="uniE61B" unicode="&#xe61b;" 
d="M186 687q0 9 7 16t16 7h256q10 0 17 -7t7 -16v-256q0 -10 -7 -17t-17 -7h-256q-9 0 -16 7t-7 17v256zM186 337q0 10 7 17t16 7h256q10 0 17 -7t7 -17v-256q0 -9 -7 -16t-17 -7h-256q-9 0 -16 7t-7 16v256zM535 687q0 9 7 16t17 7h256q9 0 16 -7t7 -16v-256q0 -10 -7 -17
t-16 -7h-256q-10 0 -17 7t-7 17v256zM535 337q0 10 7 17t17 7h256q9 0 16 -7t7 -17v-256q0 -9 -7 -16t-16 -7h-256q-10 0 -17 7t-7 16v256z" />
    <glyph glyph-name="uniE61C" unicode="&#xe61c;" 
d="M918 29q-28 22 -88.5 54t-106.5 54t-46 21l-117 -214l-17 51l32 65l-64 64l-64 -64l32 -65l-20 -52l-113 215q-179 -80 -241 -129q-18 -13 -33.5 -39t-25 -49.5t-17.5 -51.5t-10.5 -38.5t-3.5 -16.5h994q0 21 -18 76q-27 84 -73 119zM517 177q52 0 99 31.5t77.5 78.5
t48.5 97.5t18 90.5v38q0 14 -2.5 40.5t-6.5 44t-12.5 41.5t-20 40t-30.5 34t-42.5 28.5t-56.5 17.5t-72 7t-72 -7t-56.5 -17.5t-42.5 -28.5t-30.5 -34t-20 -40t-12.5 -41.5t-6.5 -44t-2.5 -40.5v-38q0 -40 18 -90.5t48.5 -97.5t77.5 -79t99 -31z" />
    <glyph glyph-name="uniE61D" unicode="&#xe61d;" horiz-adv-x="1029" 
d="M733 343h70q69 0 69 176q0 31 -21.5 51.5t-53 25.5t-63 0t-53.5 -25.5t-22 -51.5q1 -1 3 -29.5t5.5 -47.5t10.5 -45t21.5 -40t33.5 -14zM467 404h90q90 0 90 226q0 28 -15 49.5t-38.5 33t-52.5 16.5t-58 0t-52.5 -16.5t-38.5 -33t-15 -49.5q0 -226 90 -226zM221 343h70
q69 0 69 176q0 31 -21.5 51.5t-53 25.5t-63 0t-53.5 -25.5t-22 -51.5q0 -176 74 -176zM176 265q2 2 6 4t6 4q9 9 17 9q8 8 16 8q2 0 6 2t6 2q17 8 21 8q-61 0 -114.5 -16.5t-86.5 -48.5q-15 -13 -26 -33.5t-16 -38t-7.5 -37.5t-3 -27.5t-0.5 -11.5h82q0 12 8 37v4l12 37v4
q2 6 8.5 18.5t8.5 18.5v4q16 25 24 33q10 4 20 11.5t13 8.5zM975 241q-33 32 -86.5 48.5t-114.5 16.5q58 -23 103 -61q52 -53 69 -156h82q-1 0 -4 27t-15 65t-34 60zM217 245q-21 -21 -36 -52t-22 -57.5t-11 -56t-4.5 -40t-0.5 -15.5h742q0 6 -0.5 16t-4.5 39.5t-11 56
t-22 57.5t-36 52q-64 63 -180.5 87t-233 0t-180.5 -87z" />
    <glyph glyph-name="uniE61E" unicode="&#xe61e;" 
d="M829 88.5q0 9.5 -7 16t-16.5 6.5t-16 -6.5t-6.5 -16t6.5 -16.5t16 -7t16.5 7t7 16.5zM389 356q-47 -35 -64.5 -60.5t-20.5 -54.5h198v53h-103q9 9 16 15q7 5 26 19q34 23 46.5 43t12.5 41q0 20 -11 36.5t-30.5 24.5t-54.5 8q-33 0 -52 -8.5t-29 -24t-14 -42.5l66 -6
q3 20 11 28t20 8t20 -7.5t8 -18.5q0 -10 -8 -21t-37 -33zM699 363q-8 5 -21 8q17 9 25 22q9 12 9 27q0 26 -21 43.5t-67 17.5q-41 0 -63 -16t-30 -45l63 -11q2 17 9.5 24t19.5 7q11 0 17.5 -6.5t6.5 -17.5t-9 -19t-21 -8q-4 0 -9 1l-3 -47q13 4 21 4q15 0 23 -9.5t8 -25.5
t-8.5 -25.5t-22.5 -9.5q-12 0 -20 7.5t-12 27.5l-66 -9q6 -22 18 -37q12 -14 31 -22q19 -7 51 -7q33 0 53.5 10t31.5 29t11 40q0 16 -6.5 28t-18.5 19zM771 174v12q0 6 -6 6h-517q-7 0 -7 -6v-12q0 -6 7 -6h517q6 0 6 6zM248 135q-7 0 -7 -7v-12q0 -6 7 -6h447q6 0 6 6v12
q0 7 -6 7h-447zM869 635h-96q-10 0 -17 -7.5t-7 -17.5t7 -17t17 -7h96q20 0 34.5 -14t14.5 -34v-484q0 -20 -14.5 -34t-34.5 -14h-725q-20 0 -34.5 14t-14.5 34v484q0 20 14.5 34t34.5 14h411q10 0 17 7l218 218q7 7 7 17t-7 17t-17 7t-18 -7l-210 -210h-401
q-40 0 -68.5 -28.5t-28.5 -68.5v-484q0 -40 28.5 -68.5t68.5 -28.5h725q40 0 68.5 28.5t28.5 68.5v484q0 40 -28.5 68.5t-68.5 28.5zM492 686q7 -6 16.5 -6.5t15.5 6.5l2 2q7 7 7 16.5t-7 15.5l-121 123q-7 7 -16.5 7t-15.5 -7l-2 -2q-7 -6 -7 -15.5t7 -16.5z" />
    <glyph glyph-name="uniE61F" unicode="&#xe61f;" 
d="M642 370q14 -12 0 -25l-309 -270q-7 -6 -7.5 -15t5 -15.5t14.5 -7t16 5.5l309 270q21 18 21 44t-20 45l-310 280q-7 6 -15.5 6t-14.5 -7t-5.5 -15.5t6.5 -14.5z" />
    <glyph glyph-name="uniE620" unicode="&#xe620;" 
d="M214 1q-11 -11 -11 -26.5t11 -26.5l3 -3q11 -11 26 -11t26 11l409 412q11 11 11 26.5t-11 26.5l-410 412q-11 11 -26 11t-26 -11l-3 -3q-11 -11 -10 -25.5t13 -25.5l361 -356q11 -11 11 -27t-10 -27zM214 1zM821 -55q0 -5 -3 -8t-8 -3h-53q-4 0 -7.5 3t-3.5 8v878
q0 5 3.5 8t7.5 3h53q5 0 8 -3t3 -8v-878z" />
    <glyph glyph-name="uniE621" unicode="&#xe621;" 
d="M762 -89q12 12 12 29t-12 28l-416 412l414 417q12 12 12 28.5t-12 28.5t-28.5 11.5t-28.5 -11.5l-440 -444l-1 -1v-1h-1q-11 -12 -11 -29t12 -28l443 -440q12 -12 28.5 -11.5t28.5 11.5zM762 -89z" />
    <glyph glyph-name="uniE622" unicode="&#xe622;" 
d="M216 -22q-42 0 -68 30.5t-26 80.5v672q0 49 26 80t68 31q32 0 66 -20l528 -336q61 -36 61 -91.5t-62 -91.5l-526 -335q-35 -20 -67 -20zM216 817q-16 0 -25.5 -11.5t-11.5 -22.5t-2 -22v-672q0 -12 2 -23t11.5 -22.5t25.5 -11.5q17 0 39 13l526 335q36 21 36 45t-35 44
l-528 337q-21 11 -38 11zM486 249q-8 0 -12 6q-7 12 4 19l8 5q11 7 18.5 -4.5t-4.5 -18.5l-7 -5q-4 -2 -7 -2zM287 124q-8 0 -12 6q-7 12 4 19l153 96q11 7 18.5 -4.5t-4.5 -18.5l-152 -96q-3 -2 -7 -2z" />
    <glyph glyph-name="uniE623" unicode="&#xe623;" 
d="M303 5q-9 -22 -24.5 -37.5t-37 -24.5t-45.5 -9q-26 0 -46.5 9t-37 24.5t-25.5 37.5q-9 21 -9 45.5t9 46t25.5 37t37 24.5t46.5 9q24 0 45.5 -9t37 -24.5t24.5 -37t9 -46t-9 -45.5zM640 -62h-42h-38h-45q0 96 -31 167q-38 88 -84 134q-58 58 -124 86q-75 32 -151 32
q0 109 1 168q111 0 213 -44q102 -43 178 -119t120 -179q22 -49 34.5 -117t12.5 -127q-27 -1 -44 -1v0zM941 -34q-12 0 -19.5 1t-23.5 2h-60q0 147 -56 277t-153 227t-226 152q-130 56 -278 56v69v86q175 0 336 -69q159 -69 276 -186q118 -118 187 -276q68 -157 68 -337
q-39 -2 -51 -2v0z" />
    <glyph glyph-name="uniE624" unicode="&#xe624;" 
d="M702 64q-80 -56 -178 -55q-12 0 -25 1q-2 0 -5.5 0.5t-4.5 1.5q-13 1 -19 2q-1 1 -11 3q-12 3 -19 5l-8 3q-13 4 -21 7q0 1 -4 3q-14 6 -24 11h-1q-38 22 -69 53v1h-1l-18 20q-1 1 -2 2.5t-2 2.5q-66 84 -66 192h70q3 0 4.5 2.5t0.5 4.5l-119 180q-1 3 -4 3t-4 -3
l-119 -180q-2 -2 -0.5 -4.5t4.5 -2.5h71q0 -126 71 -230l1 -1v-2q3 -3 15 -19q0 -1 2 -3.5t3 -3.5q10 -12 23 -26q2 -2 3 -2q40 -41 90 -68l2 -2q13 -7 29 -14q1 -1 3.5 -2t4.5 -1q10 -5 25 -10q10 -3 13 -4q8 -3 23 -6q13 -3 16 -4q1 0 3 -0.5t3 -0.5q5 -1 23 -3q1 -1 3 -1
h5q22 -3 40 -3q125 0 228 74q17 11 20.5 31t-8 36.5t-31 20t-36.5 -8.5zM928 317q0 125 -71 228q0 1 -0.5 2t-0.5 2q-6 7 -18 23l-1 1l-1 1q-61 75 -149 114q-1 0 -2.5 1t-2.5 1q-12 5 -28 11q-1 0 -3 0.5t-4 1.5t-3 1q-10 3 -26 7q-12 2 -14 3q-1 0 -3 0.5t-4 0.5
q-3 1 -10 2t-9 1q-1 0 -5.5 0.5t-7.5 0.5q-13 2 -31 2h-3h-3h-1q-126 0 -228 -73q-17 -11 -20.5 -31t8 -36.5t31 -20t36.5 8.5q79 56 176 55q14 0 27 -1q1 0 4 -0.5t4 -0.5q12 -2 21 -4q1 0 10 -2l20 -5q1 -1 3.5 -1.5t3.5 -0.5q12 -5 22 -9q1 0 1.5 -0.5t1.5 -0.5
q67 -29 114 -87q1 0 1 -1q69 -85 69 -194h-71q-3 0 -4.5 -3t0.5 -5l119 -180q1 -3 4 -3t4 3l119 180q1 2 -0.5 5t-4.5 3h-70z" />
    <glyph glyph-name="uniE625" unicode="&#xe625;" 
d="M835 570l-53 53l-270 -269l-270 269l-53 -53l269 -270l-269 -270l53 -53l270 269l270 -269l53 53l-269 270z" />
    <glyph glyph-name="uniE626" unicode="&#xe626;" horiz-adv-x="1025" 
d="M1019 428q-8 24 -28 40t-46 20l-243 36l-106 216q-11 23 -34 37t-50 14t-49.5 -14t-34.5 -37l-106 -216l-243 -36q-26 -4 -46 -20t-28 -40q-9 -24 -3 -49t25 -43l178 -176l-41 -243q-4 -26 6.5 -50t31.5 -39q22 -14 48.5 -15.5t49.5 10.5l212 112l212 -112q21 -11 44 -11
q30 0 54 16q22 15 32.5 39t5.5 50l-41 243l178 176q19 18 25 43t-3 49zM966 367l-195 -191l45 -267q5 -27 -19 -44q-25 -17 -52 -3l-233 124l-233 -124q-27 -14 -52 3q-24 17 -19 44l45 267l-195 191q-20 20 -11 46q9 27 39 31l266 39l116 237q13 27 44 27t44 -27l116 -237
l266 -39q30 -4 39 -31q9 -26 -11 -46zM509 435q-69 0 -109 -41q-20 -21 -31 -50.5t-12 -43t-1 -21.5q0 -9 6.5 -15.5t15.5 -6.5h1q9 0 15.5 6.5t6.5 16.5q0 51 31 83q27 28 77 28q9 0 15.5 6.5t6.5 15.5t-6.5 15.5t-15.5 6.5z" />
    <glyph glyph-name="uniE627" unicode="&#xe627;" horiz-adv-x="1000" 
d="M676 546q16 0 34 -2q-23 105 -123.5 175t-229.5 70q-95 0 -175.5 -39t-127.5 -107.5t-47 -150.5q0 -139 140 -237l-35 -105l122 61q89 -17 123 -17q15 0 33 1q-11 37 -11 74q0 115 86.5 196t210.5 81zM485.5 648q22.5 0 38.5 -16t16 -38.5t-16 -38.5t-38.5 -16t-38 16
t-15.5 38.5t15.5 38.5t38 16zM240.5 538q-22.5 0 -38 16t-15.5 38.5t15.5 38.5t38 16t38.5 -16t16 -38.5t-16 -38.5t-38.5 -16zM994 272q0 68 -41.5 127t-110 93t-146.5 34q-124 0 -211 -74.5t-87 -180t87 -179.5t211 -74q35 0 105 17l96 -52l-26 87q123 92 123 202z
M605 311q-16 0 -27.5 11.5t-11.5 27t11.5 27t27.5 11.5t27 -11.5t11 -27t-11 -27t-27 -11.5zM797 309q-16 0 -27 11t-11 27t11 27.5t27 11.5t27.5 -11.5t11.5 -27.5t-11.5 -27t-27.5 -11z" />
    <glyph glyph-name="uniE628" unicode="&#xe628;" 
d="M566 675q-99 0 -183.5 -49t-133.5 -134t-49 -184.5t49 -184.5t133.5 -134t183.5 -49t183 49t133 134t49 184.5t-49 184.5t-133 134t-183 49zM565.5 10q-122.5 0 -209 87.5t-86.5 210.5t86.5 210t209 87t209 -87t86.5 -210t-86.5 -210.5t-209 -87.5zM758 291h-174v210
q0 14 -10.5 24.5t-25 10.5t-24.5 -10.5t-10 -24.5v-245q0 -15 10 -25t25 -10h209q14 0 24 10t10 24.5t-10 25t-24 10.5zM338 676q13 6 17.5 20t-1.5 27t-19.5 18t-26.5 -2q-153 -73 -215 -243q-5 -14 1 -27t19 -18q6 -3 12 -3q24 0 33 23q53 144 180 205z" />
    <glyph glyph-name="uniE629" unicode="&#xe629;" 
d="M214 183q-40 0 -68 -28t-28 -68t28 -68.5t68 -28.5t68 28.5t28 68.5t-28 68t-68 28zM154 831q-17 0 -28.5 -11.5t-11.5 -27.5t11.5 -27.5t28.5 -11.5q146 0 280 -57.5t231 -154.5t154.5 -231t57.5 -280q0 -17 11.5 -28.5t27.5 -11.5t27.5 11.5t11.5 28.5
q0 162 -63.5 310.5t-171 256t-256 171t-310.5 63.5zM154 831zM526 400q-71 71 -165 110q-97 39 -208 39q-16 0 -27.5 -11.5t-11.5 -27.5t11.5 -27.5t27.5 -11.5q127 0 227.5 -57t157.5 -158.5t57 -228.5q0 -16 11.5 -27.5t27.5 -11.5t27.5 11.5t11.5 27.5q0 111 -39 208
q-38 95 -108 165zM526 400z" />
    <glyph glyph-name="uniE62A" unicode="&#xe62a;" 
d="M139 339q-24 -60 -27.5 -109t15.5 -60q13 -7 32.5 7.5t38.5 45.5q16 -66 72 -116q-29 -11 -45.5 -28.5t-16.5 -37.5q0 -33 43.5 -57t105.5 -24q56 0 97.5 19.5t50.5 48.5h18q8 -29 50 -48.5t98 -19.5q62 0 105.5 24t43.5 57q0 20 -16.5 37.5t-45.5 28.5q56 51 71 116
q20 -31 39 -45.5t32 -7.5q19 11 16 60t-27 109q-19 45 -42 77t-43 40q1 7 1 12q0 36 -17 64v4q0 16 -7 31q-5 124 -77.5 206t-190 82t-189.5 -82t-77 -206q-7 -15 -7 -31v-4q-17 -29 -17 -64q0 -5 1 -12q-20 -8 -43.5 -40t-41.5 -77z" />
    <glyph glyph-name="uniE62B" unicode="&#xe62b;" 
d="M962 513.5q-6 18.5 -26 21.5l-270 41l-121 259q-8 18 -29 18q-20 0 -29 -18l-122 -258l-270 -41q-19 -3 -25.5 -21.5t7.5 -32.5l196 -202l-47 -285q-3 -20 13.5 -31.5t33.5 -1.5l242 133l241 -134q8 -4 16 -4q14 0 23 9.5t9 22.5q0 6 -2 12l-44 278l196 202q14 14 8 32.5
zM639 225h-247v30l183 225h-167v37h225v-35l-185 -223h191v-34z" />
    <glyph glyph-name="uniE62C" unicode="&#xe62c;" 
d="M775 448h-110l-7 19l-32 106l-32 -106l-8 -19h-86l4 -14h174q7 0 9.5 -7.5t-3.5 -11.5l-141 -103l3 -8l8 -26l56 44l16 11l17 -11l75 -58l-27 93l-6 21zM517.5 894q-104.5 0 -200 -41t-164.5 -110t-109.5 -164.5t-40.5 -200t40.5 -200t109.5 -164.5t164.5 -109.5
t200 -40.5t200 40.5t164.5 109.5t109.5 164.5t40.5 200t-40.5 200t-109.5 164.5t-164.5 110t-200 41zM774 169l-148 127l-61 -51l32 -100q2 -7 -4 -12q-2 -2 -5.5 -2t-6.5 2l-140 104l-140 -104q-6 -4 -12 0.5t-4 11.5l54 167l-141 103q-6 4 -3.5 11.5t9.5 7.5h174l53 166
q3 8 10 8t10 -8l39 -121h76l60 186l59 -186h179l-145 -114z" />
    <glyph glyph-name="uniE62D" unicode="&#xe62d;" 
d="M196 615h142v-142h-142v142zM686 615h142v-142h-142v142zM196 128h142v-142h-142v142zM866 265h106v-107h-106v107zM760 158h106v-106h-106v106zM866 52h106v-106h-106v106zM760 -86h212v-70h-212v70zM541 52h140v-69h-71v-139h-69v208zM541 265v-177h69v108h140v69h-209
zM483 328h-431v431h431v-431zM437 713h-339v-339h339v339zM972 328h-431v431h431v-431zM926 713h-339v-339h339v339zM483 -159h-431v431h431v-431zM437 226h-339v-339h339v339z" />
    <glyph glyph-name="uniE62E" unicode="&#xe62e;" horiz-adv-x="1025" 
d="M893 256q0 -39 -21 -81t-62.5 -80t-96.5 -68.5t-129 -48.5t-154.5 -18t-157 19.5t-137.5 54.5t-98 88t-37 116q0 67 39.5 143t113.5 151q96 98 194.5 137t140.5 -4q38 -37 12 -122q-2 -8 -0.5 -11.5t5.5 -4t8.5 0.5t7.5 2l3 1q80 34 141 34t87 -35q26 -37 0 -104
q-1 -8 -2.5 -12t2.5 -7t7 -4t10 -4q32 -10 58.5 -27t46 -47.5t19.5 -68.5zM717 259q-5 56 -51 99t-119 63.5t-157 12.5q-127 -14 -211 -83t-76 -154q6 -56 51.5 -99t119 -63.5t156.5 -12.5q128 13 211.5 82.5t75.5 154.5zM539 165q-26 -59 -90.5 -87t-128.5 -7
q-61 20 -84 74t4 109q27 54 86.5 81t120.5 11q63 -17 90 -69.5t2 -111.5zM386 157q12 20 6 40.5t-26 29.5q-19 8 -41.5 0.5t-34.5 -27.5q-12 -19 -7 -39.5t24.5 -29.5t42.5 -1.5t36 27.5zM439 228q5 7 2.5 15t-10.5 11t-16 0t-12 -11q-10 -18 7 -26q8 -3 16.5 0t12.5 11z
M954 715q50 -56 64.5 -129.5t-7.5 -140.5q-6 -16 -20 -23.5t-29.5 -2.5t-23 19.5t-2.5 30.5q16 48 5.5 100.5t-45.5 92.5q-36 40 -85 55.5t-99 4.5q-16 -3 -29.5 6t-17 25.5t5.5 30t25 16.5q70 16 139 -6t119 -79zM793 658q34 -10 58 -37.5t31 -63.5t-4 -69
q-5 -13 -17 -19.5t-25 -2.5q-13 5 -19.5 17.5t-2.5 25.5q11 37 -14 65t-61 21q-14 -3 -26 4.5t-14 21.5q-3 14 4.5 26t21.5 15q34 7 68 -4zM793 658z" />
    <glyph glyph-name="uniE62F" unicode="&#xe62f;" 
d="M996 382q17 17 9.5 40.5t-31.5 26.5l-189 33q-19 3 -27 20l-82 180q-11 22 -35.5 22t-35.5 -22l-85 -180q-9 -17 -27 -20l-23 -4l-92 -16l-71 -13q-24 -3 -31.5 -26.5t9.5 -40.5l143 -112q14 -13 10 -32l-8 -38l-10 -51l-21 -101q-3 -18 19 -34q20 -15 42 -3l164 92
q16 9 33 0l171 -92q9 -5 19 -5q12 0 23 8q16 11 12 34l-32 186q-3 19 10 32zM786 287q-9 -9 -7 -21l21 -124q3 -15 -8 -22q-6 -5 -15 -5q-6 0 -12 3l-113 61q-12 6 -23 0l-68 -39l-40 -22q-6 -3 -13 -3q-8 0 -15 5q-1 0 -2 1q-12 10 -10 21l25 126q3 13 -6 22l-42 32l-53 42
q-12 11 -6.5 26.5t21.5 17.5l98 18l24 4q13 2 19 13l14 30l42 89q7 15 23.5 15t23.5 -15l54 -119q6 -11 18 -13l125 -22q16 -2 21 -17.5t-6 -26.5zM415 216l-66 26q-10 3 -18 -2l-80 -60q-11 -7 -22 -1q-13 7 -12 17l8 102q0 10 -8 17l-82 49q-11 8 -8.5 21t15.5 16l95 29
q10 3 13 13l33 100q4 12 17 14t20 -9l43 -70l92 17l-30 1q-16 0 -24 13l-83 135q-11 16 -30.5 13.5t-25.5 -20.5l-50 -152q-5 -14 -20 -18l-144 -45q-19 -5 -22.5 -24t12.5 -31l124 -75q12 -9 12 -24l-13 -155q0 -15 19 -26q17 -9 33 2l121 90q13 8 27 3l43 -17z" />
    <glyph glyph-name="uniE630" unicode="&#xe630;" 
d="M513 673l107 -219l15 -31l34 -5l241 -36l-175 -173l-24 -24l5 -33l41 -243l-213 114l-31 16l-31 -16l-213 -114l41 243l6 33l-25 24l-174 173l240 36l34 5l15 31zM513 787q-17 0 -25 -15l-140 -290l-315 -46q-17 -2 -22.5 -19t7.5 -29l227 -225l-53 -318q-3 -17 11 -28
q7 -5 16 -5q7 0 13 3l281 150l281 -150q6 -3 13 -3q9 0 17 5q14 11 11 28l-54 318l227 225q13 12 7.5 29t-22.5 19l-314 46l-141 290q-8 15 -25 15z" />
    <glyph glyph-name="uniE631" unicode="&#xe631;" 
d="M92 783h360v-360h-360v360zM572 783h360v-360h-360v360zM92 303h360v-360h-360v360zM932 3q0 -25 -17.5 -42.5t-42.5 -17.5h-240q-25 0 -42.5 17.5t-17.5 42.5v240q0 25 17.5 42.5t42.5 17.5h240q25 0 42.5 -17.5t17.5 -42.5v-240zM874 215q0 12 -8.5 21t-21.5 9h-184
q-13 0 -21.5 -9t-8.5 -21v-185q0 -12 8.5 -21t21.5 -9h184q13 0 21.5 9t8.5 21v185z" />
    <glyph glyph-name="uniE632" unicode="&#xe632;" 
d="M803 102h-116l1 -1q-239 0 -453 -91l-36 -16v80v27v2v1q-58 7 -97 51t-39 103v359q0 65 45.5 110.5t109.5 45.5h585q65 0 110.5 -45.5t45.5 -110.5v-359q0 -65 -45.5 -110.5t-110.5 -45.5zM323 484q-24 0 -41 -16.5t-17 -40t17 -40.5t41 -17t41.5 17t17.5 40.5t-17.5 40
t-41.5 16.5zM525.5 484q-23.5 0 -40.5 -16.5t-17 -40t17 -40.5t40.5 -17t40.5 17t17 40.5t-17 40t-40.5 16.5zM727.5 484q-24.5 0 -41.5 -16.5t-17 -40t17 -40.5t41.5 -17t41.5 17t17 40.5t-17 40t-41.5 16.5z" />
    <glyph glyph-name="uniE633" unicode="&#xe633;" 
d="M810 767q11 11 11 26.5t-11 26.5l-3 3q-11 11 -26 11t-26 -11l-409 -412q-11 -11 -11 -26.5t11 -26.5l410 -412q11 -11 26 -11t26 11l3 3q11 11 10 25.5t-13 25.5l-361 356q-11 11 -11 27t10 27zM810 767zM203 823q0 5 3 8t8 3h53q4 0 7.5 -3t3.5 -8v-878q0 -5 -3.5 -8
t-7.5 -3h-53q-5 0 -8 3t-3 8v878z" />
    <glyph glyph-name="uniE634" unicode="&#xe634;" 
d="M262 857q-12 -12 -12 -29t12 -28l416 -412l-414 -417q-12 -12 -12 -28.5t12 -28.5t28.5 -11.5t28.5 11.5l440 444l1 1v1h1q11 12 11 29t-12 28l-443 440q-12 12 -28.5 11.5t-28.5 -11.5zM262 857z" />
    <glyph glyph-name="uniE635" unicode="&#xe635;" 
d="M860 137q0 -5 -4.5 -9.5t-9.5 -4.5h-668q-5 0 -9.5 4.5t-4.5 9.5v349q14 -17 31 -30q122 -94 193 -154q23 -19 38 -30t39.5 -22t46.5 -11v0q22 0 46.5 11t39.5 22t38 30q71 60 193 154q17 13 31 30v-349zM860 614q0 -27 -21 -60t-46 -52q-87 -69 -181 -144q-3 -2 -16 -13
t-21 -17t-20 -14.5t-23 -12.5t-20 -4v0q-9 0 -20 4t-23 12.5t-20 14.5t-21 17t-16 13q-94 75 -181 144q-67 52 -67 129q0 5 4.5 9.5t9.5 4.5h668q3 0 5.5 -1t4.5 -3.5t2.5 -4.5t1 -5.5t0.5 -5.5v-6v-5zM918 631q0 29 -21.5 50.5t-50.5 21.5h-668q-29 0 -50.5 -21.5
t-21.5 -50.5v-494q0 -29 21.5 -50.5t50.5 -21.5h668q29 0 50.5 21.5t21.5 50.5v494z" />
    <glyph glyph-name="uniE636" unicode="&#xe636;" 
d="M512 642l484 -516h-968z" />
    <glyph glyph-name="uniE637" unicode="&#xe637;" 
d="M930 501q-14 17 -36 17q-18 0 -31 -11l-335 -282l-336 282q-13 11 -31 11q-22 0 -36 -17q-13 -15 -11.5 -35t16.5 -32l366 -307q14 -12 32 -11q17 -1 31 11l366 307q15 12 16.5 32t-11.5 35z" />
    <glyph glyph-name="uniE638" unicode="&#xe638;" 
d="M94 183q14 -17 36 -17q18 0 31 11l335 282l336 -282q13 -11 31 -11q22 0 36 17q13 15 11.5 35t-16.5 32l-366 307q-14 12 -32 11q-17 1 -31 -11l-366 -307q-15 -12 -16.5 -32t11.5 -35z" />
    <glyph glyph-name="uniE639" unicode="&#xe639;" 
d="M512 86l-511 511h1023z" />
    <glyph glyph-name="uniE63A" unicode="&#xe63a;" 
d="M512 640q62 0 123.5 -20t107 -47.5t89 -65.5t69 -66.5t46.5 -56.5q-22 -29 -46 -56.5t-67.5 -66t-88.5 -66t-107 -47.5t-126 -20t-126 20t-107 47.5t-88.5 66t-67.5 66t-46 56.5q22 29 46 56.5t67.5 66t88.5 66t107 47.5t126 20zM512 704q-65 0 -128.5 -17.5t-113 -46
t-94 -62.5t-76 -68t-54.5 -62.5t-34 -45.5l-12 -18q4 -7 11.5 -18.5t34 -44.5t55.5 -63.5t75 -67t94.5 -63.5t112.5 -45t129 -18t128.5 17.5t113 46t94 62.5t76 68t54.5 62.5t34 45.5l12 18q-4 7 -11.5 18.5t-34 44.5t-55.5 63.5t-75 67t-94.5 63.5t-112.5 45t-129 18z
M512 576q-10 0 -29 -3t-29 -3q26 -16 42 -39.5t16 -50.5q0 -38 -29 -67t-67 -29q-27 0 -50.5 16t-39.5 42q0 -10 -3 -29t-3 -29q0 -82 55 -137t137 -55t137 55t55 137t-55 137t-137 55z" />
    <glyph glyph-name="uniE63B" unicode="&#xe63b;" 
d="M262 596q5 1 17 4q2 5 4 11q-8 17 -56.5 52.5t-70.5 43.5q-10 -7 -12 -11v-10q12 -25 118 -90zM767 600q15 11 37 26.5t41.5 30t37.5 27.5q-1 6 -2 14q-3 5 -12 9q-19 -11 -38 -24.5t-44 -32.5t-36 -27q2 -8 2 -14q4 -5 14 -9zM499 682q-34 0 -77 -18q-48 -20 -87 -64
t-55.5 -105.5t7.5 -132.5q6 -16 25.5 -46t36 -54.5t26 -56.5t0.5 -58q5 -11 12 -16h10l5 5l5 5q8 38 -1.5 73t-26.5 58t-37 53.5t-27 54.5q-11 42 -7.5 83t25 78t50.5 64t69 39.5t80 5.5q62 -10 112.5 -48t73.5 -98t-6 -136q-7 -18 -21.5 -41t-27 -40.5t-25 -43t-15 -48
t2.5 -56.5q20 -13 28 -2v51q9 45 39 90q1 3 10 15.5t11 16.5t9 15t10 17.5t7.5 17t7.5 21t5 21.5q12 59 -5 112.5t-54.5 90t-89 57.5t-105.5 20zM487 605q-4 -1 -13 -5q-31 -12 -45.5 -19t-33 -20.5t-29 -31.5t-18.5 -45q-10 -35 -4 -49q17 -30 35 35q11 40 12 41
q18 30 47 44.5t76 20.5q10 15 2 23t-29 6zM215 415q6 10 5 22q-9 6 -28.5 8.5t-36 2t-43 -1.5t-35.5 -1q-7 -11 -11 -16q8 -17 65.5 -19t83.5 5zM816 445l-6 -8l-4 -10l4 -6q7 -8 66 -9t75 3q16 28 -40 32q-16 1 -95 -2zM277 264q-5 1 -11 2q-9 -7 -40.5 -27.5t-56 -40.5
t-27.5 -33l2 -6q5 -4 8 -6q18 1 72 40.5t63 55.5q-1 8 -2.5 10.5t-7.5 4.5zM748 251v-10q7 -16 65 -55t68 -25q1 6 2 13q-2 2 -19 16.5t-28 23.5t-28 21t-31 18.5t-24 7.5q-1 -2 -2.5 -5.5t-2.5 -4.5zM634 119q-72 1 -239 2q-4 -2 -11.5 -8t-12.5 -9q-7 -30 4 -59
q16 -10 121 -15.5t134 3.5q8 3 15.5 12t9.5 18q5 18 -2 34.5t-19 21.5zM622 65h-217q-5 1 -6 2q0 3 0.5 11t1.5 12h221v-25zM605 8q-11 -1 -16 -6.5t-5 -15t1 -21.5q-3 -2 -71 -36q-25 12 -68 32v39q-2 1 -5 3t-5 3q-7 1 -12 2q-1 -2 -3.5 -5.5t-4.5 -4.5v-51q3 -6 48.5 -29
t51.5 -22q19 9 52.5 25.5t45.5 23.5q3 10 3 28.5t-5 26.5q-2 4 -7 8z" />
    <glyph glyph-name="uniE63C" unicode="&#xe63c;" 
d="M160 407q0 145 102 249q103 104 249 104t249.5 -104t103.5 -249q0 -22 -2 -40q-1 -2 -1 -9l-6 -33q-2 0 -2 -6q-5 -18 -11 -33v-2l-2 -2q-9 -24 -14 -34q0 -2 -2 -2q-8 -17 -20 -35t-24 -33l-1 -1l-1 -1q-9 -10 -26 -26q-1 0 -2 -2q-3 -1 -5.5 -5t-4.5 -6q-6 0 -6 -3
l-17 -14l-4 -3l-3 -2q-16 -12 -24 -29q-7 -17 -14 -24q-8 -7 -28 -7h-264q-20 0 -27.5 7.5t-15.5 23.5t-23 29q-2 0 -4 2l-3 3l-17 14l-6 3l-7 8l-5 5l-26 26q-1 0 -1 1l-1 1q-28 36 -44 68q-2 0 -2 2q-5 10 -14 34q-2 0 -2 2v2q-6 15 -11 33q-1 1 -1 3l-1 3q-4 14 -6 33
q0 1 -1 4.5t-1 4.5q-1 18 -1 40v0zM367 -4h294q12 0 20.5 -8t8.5 -21t-8.5 -21.5t-20.5 -8.5h-294q-13 0 -21 8.5t-8 21.5t8 21t21 8zM380 -121h266l-108 -55q-27 -12 -54 0zM543 583q54 0 100 -43q47 -43 47 -107q0 -11 8.5 -20t21 -9t21 9t8.5 20q0 95 -62.5 152
t-143.5 57q-13 0 -21 -8.5t-8 -21t8 -21t21 -8.5z" />
    <glyph glyph-name="uniE63D" unicode="&#xe63d;" 
d="M620 29q0 -10 -7 -17t-17 -7h-186q-9 0 -16 7t-7 16.5t7 16.5t16 7h186q10 0 17 -7t7 -16zM596 -6h-186q-11 0 -18 -9.5t-4 -21.5q5 -16 23 -16h1q22 0 32 -20q13 -27 43 -27h33q30 0 43 27q10 20 32 20q19 0 24 16q3 12 -4 21.5t-19 9.5zM503 742q10 0 17 6.5t7 16.5v94
q0 9 -7 16t-16.5 7t-16.5 -7t-7 -16v-94q0 -10 7 -16.5t16 -6.5zM257 653q7 -7 16.5 -7t16.5 7t7 16.5t-7 16.5l-66 66q-7 7 -16.5 7t-16.5 -7t-7 -16.5t7 -16.5zM201 438q0 9 -6.5 16t-16.5 7h-93q-10 0 -16.5 -7t-6.5 -16.5t6.5 -16.5t16.5 -7h93q10 0 16.5 7t6.5 17z
M257 223l-66 -66q-7 -7 -7 -16.5t7 -16.5t16.5 -7t16.5 7l66 66q7 7 7 16.5t-7 16.5t-16.5 7t-16.5 -7zM750 223q-7 7 -16.5 7t-16.5 -7t-7 -16.5t7 -16.5l66 -66q7 -7 16.5 -7t16.5 7t7 16.5t-7 16.5zM922 461h-93q-10 0 -16.5 -7t-6.5 -16.5t6.5 -16.5t16.5 -7h93
q10 0 16.5 7t6.5 16.5t-6.5 16.5t-16.5 7zM734 646q9 0 16 7l66 66q7 7 7 16.5t-7 16.5t-16.5 7t-16.5 -7l-66 -66q-7 -7 -7 -16.5t7 -16.5t17 -7zM620 87q0 -10 -7 -16.5t-17 -6.5h-186q-9 0 -16 6.5t-7 16.5q0 9 6.5 16t15.5 7q-4 36 -21 68t-38 56.5t-42 50.5t-35 62
t-14 79q0 102 71.5 174t173 72t173 -72t71.5 -174q0 -43 -14 -79t-35 -62t-42 -50.5t-38 -56.5t-21 -68q9 0 15.5 -7t6.5 -16zM450 606q-3 7 -9.5 9.5t-13.5 0.5q-44 -19 -76 -55.5t-44 -83.5q-2 -7 1.5 -13t10.5 -8q2 -1 5 -1q13 0 16 13q10 39 36.5 69.5t63.5 45.5
q7 3 10 9.5t0 13.5z" />
    <glyph glyph-name="uniE63E" unicode="&#xe63e;" 
d="M512 812q-138 0 -256 -69t-187 -187t-69 -256t69 -256t187 -187t256 -69t256 69t187 187t69 256t-69 256t-187 187t-256 69zM217.5 5.5q-57.5 57.5 -89.5 135t-32 159.5q0 70 24 137.5t67 122.5l583 -587q-115 -89 -258 -89q-82 0 -159.5 32t-135 89.5zM837 40l-583 587
q115 89 258 89q82 0 159.5 -32t135 -89.5t89.5 -135t32 -159.5q0 -70 -24 -137.5t-67 -122.5z" />
    <glyph glyph-name="uniE63F" unicode="&#xe63f;" 
d="M512 866q-98 0 -187 -38.5t-153.5 -103t-103 -153.5t-38.5 -187t38.5 -187t103 -153.5t153.5 -103t187 -38.5t187 38.5t153.5 103t103 153.5t38.5 187t-38.5 187t-103 153.5t-153.5 103t-187 38.5zM151 384q0 98 48 181.5t131.5 131.5t181.5 48q122 0 220 -74l-511 -501
q-70 96 -70 214zM512 23q-112 0 -204 63l506 497q59 -91 59 -199q0 -98 -48 -181.5t-131.5 -131.5t-181.5 -48z" />
    <glyph glyph-name="uniE640" unicode="&#xe640;" 
d="M846 162h-166q10 -25 16.5 -73.5t0.5 -94.5q-4 -39 -26 -68t-56 -40q-25 -9 -49 -5t-38 18q-11 11 -20 31t-13.5 36t-11.5 46q-15 62 -24 78q-13 21 -35.5 38.5t-36 23.5t-24.5 10h-79q-12 0 -20 8t-8 20v395q0 11 8 19.5t20 8.5h76q103 56 212 56h189q29 0 60.5 -11.5
t45 -34t38.5 -183t25 -193.5q0 -34 -27 -59.5t-57 -25.5zM818 594q-3 6 -21 12.5t-36 6.5h-189q-21 0 -42 -3.5t-39.5 -8t-35 -11t-29.5 -12.5t-23 -10.5t-15 -7.5l-6 -4h-14h-56v-338h56q1 0 6 -1h2l1 -1h1q1 0 1 -1q11 -3 23.5 -8.5t32.5 -17t39.5 -30t32.5 -40.5
q14 -24 31 -93q18 -75 29 -87q10 -8 33 1q36 14 42 61q10 88 -28 178q-7 13 2 26q8 13 23 13h207q7 0 17 9t10 20q0 29 -23 178.5t-32 168.5zM94 615h135v-436h-135v436z" />
    <glyph glyph-name="uniE641" unicode="&#xe641;" 
d="M178 458h166q-10 25 -16.5 73.5t-0.5 94.5q4 39 26 68t56 40q25 9 49 5t38 -18q11 -11 20 -31t13.5 -36t11.5 -46q15 -62 24 -78q13 -21 35.5 -38.5t36 -23.5t24.5 -10h79q12 0 20 -8t8 -20v-395q0 -11 -8 -19.5t-20 -8.5h-76q-103 -56 -212 -56h-189q-29 0 -60.5 11.5
t-45 34t-38.5 183t-25 193.5q0 34 27 59.5t57 25.5zM206 26q3 -6 21 -12.5t36 -6.5h189q21 0 42 3.5t39.5 8t35 11t29.5 12.5t23 10.5t15 7.5l6 4h14h56v338h-56q-1 0 -6 1h-2l-1 1h-1q-1 0 -1 1q-11 3 -23.5 8.5t-32.5 17t-39.5 30t-32.5 40.5q-14 24 -31 93q-18 75 -29 87
q-10 8 -33 -1q-36 -14 -42 -61q-10 -88 28 -178q7 -13 -2 -26q-8 -13 -23 -13h-207q-7 0 -17 -9t-10 -20q0 -29 23 -178.5t32 -168.5zM930 5h-135v436h135v-436z" />
    <glyph glyph-name="uniE642" unicode="&#xe642;" 
d="M773 561l-42 42l-219 -218l-218 218l-42 -42l260 -261zM512 145l-218 219l-42 -43l260 -260l261 260l-42 43zM512 145z" />
    <glyph glyph-name="uniE643" unicode="&#xe643;" 
d="M302 664q-80 -46 -126 -126q16 -17 37 -25q41 73 115 114q-8 22 -26 37zM713 775q-61 0 -114 -28.5t-87 -76.5q-34 48 -87 76.5t-114 28.5q-102 0 -173.5 -72t-71.5 -174q0 -130 58 -245.5t160.5 -192t227.5 -97.5v-1q126 22 227.5 97.5t160 191t58.5 247.5
q0 102 -71.5 174t-173.5 72zM512 39l-1 1q-113 20 -204.5 90.5t-144 175.5t-52.5 223q0 83 59 142t142 59q56 0 103 -28.5t73 -75.5q-11 -25 -16 -52h46q15 68 70 112t126 44q83 0 142 -59t59 -142q0 -120 -52.5 -225t-144.5 -174.5t-205 -90.5z" />
    <glyph glyph-name="uniE644" unicode="&#xe644;" 
d="M888 306l-33 35q45 42 70 89.5t30 82.5t0 70.5t-9.5 48.5t-8.5 21q-63 114 -166 136q-47 10 -92.5 -0.5t-74.5 -32.5q-38 -29 -113.5 -102t-124 -123t-57.5 -60l-24 26q202 222 287 287q86 65 194 42q28 -6 49 -13t50 -22.5t55 -44t48 -68.5q19 -36 25 -99
q16 -160 -105 -273zM167 302q-46 31 -77.5 67t-46.5 68t-20.5 67t-4 59.5t7.5 49t9 32.5t6 13q22 41 52 72t56.5 47t55.5 26.5t46 13t32 3.5q38 1 76 -8.5t63.5 -23t48.5 -30.5t31.5 -25.5t12.5 -13.5l-34 -29l-11 10q-6 7 -26.5 23.5t-42 28.5t-53.5 21.5t-62 8.5
q-17 -1 -36 -5.5t-49 -16.5t-60 -41t-53 -70q-2 -5 -5 -13t-8 -30t-7 -44t2.5 -53t16.5 -58.5t38 -58.5t64 -56l-29 -44zM568 -112q-11 0 -26.5 2t-37.5 9.5t-33 19.5l40 41q40 -44 73 -31q32 18 25 70l-5 39l26 -10q38 -1 52 15q12 11 19.5 19.5t10 13.5t2 8.5t-2.5 5
t-6 3.5t-5 2l8 40l26 -13q9 -6 20 -3.5t19 10.5q19 17 22.5 28t-2 20t-6.5 10l10 47l32 -22q5 -3 18 2.5t24 17.5l7 7q6 6 9 10t6.5 10.5t2.5 12t-7 11.5q-53 55 -230 230q-83 -82 -122 -97q-45 -15 -85 -13t-73 17.5t-54 32.5t-28 31l32 24q1 -3 4 -7t11.5 -14.5t18.5 -19
t26.5 -16.5t34.5 -12t42.5 -1.5t51.5 12.5q16 7 53 39t69 65l19 14l19 -19l19 -19q19 -18 48 -45.5t60.5 -58.5t61 -60t45.5 -46q17 -21 14.5 -59.5t-15.5 -53.5q-40 -46 -71 -49q-3 -29 -28 -56q-36 -37 -66 -39q-4 -27 -24 -50q-5 -5 -11 -8.5t-15 -6t-14.5 -3.5t-18.5 -2
t-16 -2q-2 -35 -18 -66q-11 -18 -25 -24q-1 -1 -9 -5t-14.5 -6t-12.5 -2zM188 155q-28 0 -58 32q-31 32 -33 53q-2 16 -0.5 22t14.5 19l117 98q16 15 35.5 21t41.5 -1t38 -31q24 -25 27 -57l-27 -25l-129 -114q-4 -3 -7 -8l-4 -6q-1 -1 -5 -2t-10 -1zM284 376q-7 0 -11 -4
l-142 -118q-5 -5 -4 -15q0 -6 29 -36q9 -9 21 -12t18 3l129 124q6 5 5 15q-2 13 -13 25q-18 18 -32 18zM257 71q-4 1 -5.5 1.5t-3.5 2l-2 1.5l-4 4q-3 3 -7 6q-16 17 -25.5 29t-19.5 28t-8.5 29.5t14.5 23.5l121 105q58 55 114 -12q24 -25 27 -56q1 -11 -3.5 -17.5t-15 -14
t-14.5 -11.5l-121 -104l-6 -6l-5 -5q-1 -1 -4.5 -3.5t-5.5 -3t-6 -1t-8 0.5zM356 307q-3 0 -12 -9l-129 -124q-5 -5 4.5 -24.5t21.5 -31.5q13 -14 28 -14q7 0 11 4l129 124q6 5 5 15q-2 13 -13 25q-37 39 -45 35zM374 -25q12 1 0 5q-53 17 -68 30q-25 26 -27 55.5t21 50.5
l104 106q21 21 56 14t53 -36q24 -27 23 -47.5t-24 -42.5l-123 -101q-4 -4 -5 -12t-0.5 -14t-2.5 -10t-11 0zM445 216q-7 0 -15 -8l-126 -120q-5 -5 3 -25t19 -31q13 -14 28 -14q7 0 11 4l129 125q6 4 4 16.5t-12 22.5q-28 30 -41 30zM461 -93q-25 0 -37.5 5t-35.5 23
q-23 23 -26 57q0 -2 4 3q17 28 12 36q-2 3 -12 -7l118 106q22 22 53 19t56 -31q1 0 6.5 -7.5t11.5 -16.5t6 -11q10 -26 -15 -50l-124 -115q3 2 4 0q0 -4 -9 -8q-6 -3 -13 -3h1zM537 124q-7 0 -11 -4l-129 -124q-5 -5 -4 -15q0 -6 6 -17.5t12 -17.5q11 -11 33 -11q7 0 11 4
l124 122q6 5 5 15q-2 13 -13 24q-23 24 -34 24zM588 267l150 -149l-25 -37l-150 157zM675 353l141 -132l-27 -37l-142 141z" />
    <glyph glyph-name="uniE645" unicode="&#xe645;" 
d="M753 844q-14 2 -41 2q-71 0 -116 -26.5t-92 -82.5q-49 57 -93.5 83t-116.5 26q-27 0 -41 -2q-35 -3 -70 -20t-65.5 -45.5t-49.5 -74.5t-19 -100v-51q0 -241 455 -551h8q35 0 187.5 158t220.5 250q38 75 38 143v51q0 54 -19.5 100t-50 74.5t-65.5 45.5t-70 20zM229 342
q-5 3 -12.5 10t-27 28.5t-35.5 43.5t-31.5 55t-21 65.5t3 71t34.5 74.5q24 35 52 56t52 28t51 4.5t45.5 -9t38.5 -18.5t28 -18t17 -14l2 -1q-240 38 -253 -137q-7 -101 54 -233z" />
    <glyph glyph-name="uniE646" unicode="&#xe646;" 
d="M1015 579q-2 -42 -15.5 -77.5t-30.5 -56.5q-16 -19 -72 -79l-228 237l-115 -107h-1q-22 -22 -53 -35t-44 -15t-20 -2h-1h-8q-61 0 -132 61q234 242 311 309q23 20 62.5 35t84.5 15q104 0 184 -85q84 -90 78 -200zM243 505l13 -13l10 -10q7 -7 25.5 -21.5t37.5 -25.5
t46 -19.5t52 -8.5h11q11 1 27 3.5t52 18t62 40.5l89 82l126 -131l116 -123q12 -12 11.5 -32.5t-14.5 -34.5q-15 -15 -34.5 -17t-32.5 11l-152 143l-14 -15l-12 -12l147 -147q13 -12 11 -32t-17 -35t-36 -16q-19 -2 -31 11l-150 150l-26 -26l148 -153q12 -13 11 -31
q-1 -21 -17 -36.5t-36 -16.5q-19 -1 -31 11l-16 16q22 23 22 56t-24 56q-23 23 -56 23q-8 0 -16 -1q5 39 -23 66q-23 23 -56 23q-8 0 -15 -1v9q0 33 -23.5 56.5t-56.5 23.5q-9 0 -18 -3q1 6 1 12q0 33 -23.5 56t-56.5 23q-34 0 -57 -23l-72 -72l5 6q-72 63 -93 98q-1 1 -3 4
q-54 90 -45 174t79 156q82 84 198 76q48 -3 89 -20t65 -38q13 -12 45 -44q-99 -98 -229 -234zM243 385q13 12 30.5 12t30.5 -12.5t13 -30t-13 -30.5l-113 -114q-12 -13 -30 -13t-31 13t-13 30.5t13 30.5zM317 354zM340 296q13 13 31 13t30.5 -13t12.5 -30.5t-12 -30.5
l-113 -114q-13 -13 -31 -13t-30.5 13t-12.5 30.5t12 30.5zM435 208q13 13 31 13t30 -12q13 -13 13 -31t-13 -30l-113 -114q-12 -13 -30 -13t-30.5 12.5t-13 30.5t12.5 31zM530 121q13 12 31 12t30 -12q13 -13 13 -31t-13 -30l-113 -114q-12 -13 -30 -13t-30.5 12.5
t-12.5 30.5t12 31zM606 -12q12 -13 10.5 -32.5t-16.5 -34t-34.5 -16t-31.5 10.5l-17 17l72 72z" />
    <glyph glyph-name="uniE647" unicode="&#xe647;" 
d="M485 376q0 -24 -17 -41t-41 -17h-206q-24 0 -41 17t-17 41v215q0 24 17 41t41 17h206q24 0 41 -17t17 -41v-215zM485 8q0 -24 -17 -41t-41 -17h-206q-24 0 -41 17t-17 41v215q0 24 17 41t41 17h206q24 0 41 -17t17 -41v-215zM862 376q0 -24 -17 -41t-41 -17h-206
q-24 0 -41 17t-17 41v215q0 24 17 41t41 17h206q24 0 41 -17t17 -41v-215zM862 8q0 -24 -17 -41t-41 -17h-206q-24 0 -41 17t-17 41v215q0 24 17 41t41 17h206q24 0 41 -17t17 -41v-215z" />
    <glyph glyph-name="uniE648" unicode="&#xe648;" 
d="M880 161h-736v473h736v-473zM357 108h-213v-157h213v157zM618 108h-212v-157h212v157zM880 108h-212v-157h212v157zM880 108z" />
    <glyph glyph-name="uniE649" unicode="&#xe649;" 
d="M512 666q-69 0 -134.5 -29t-111 -72.5t-80.5 -92.5t-52.5 -89.5t-17.5 -62.5t17 -62.5t52 -89.5t80.5 -92t111 -72.5t135.5 -29.5q69 0 134.5 29t111 72.5t80.5 92.5t52.5 89.5t17.5 62.5t-17 62.5t-52 89.5t-80.5 92t-111 72.5t-135.5 29.5zM512 72q-46 0 -93 21
t-82 52.5t-63.5 66.5t-43 64t-14.5 44t14.5 44t42.5 64.5t63 67t82 52.5t94 21q46 0 93 -21t82 -52.5t63.5 -66.5t43 -64.5t14.5 -44.5t-14 -44t-42 -64t-63 -66.5t-82 -52.5t-95 -21zM512 468q-61 0 -104.5 -43.5t-43.5 -104.5t43.5 -104.5t104.5 -43.5t104.5 43.5
t43.5 104.5t-43.5 104.5t-104.5 43.5zM512 271q-20 0 -34.5 14.5t-14.5 34.5t14.5 34.5t34.5 14.5t34.5 -14.5t14.5 -34.5t-14.5 -34.5t-34.5 -14.5z" />
    <glyph glyph-name="uniE64A" unicode="&#xe64a;" 
d="M641 300l299 299q17 17 19.5 38.5t-10.5 34.5l-65 65q-13 13 -34.5 10.5t-38.5 -19.5l-299 -299l-299 299q-17 17 -38.5 19.5t-34.5 -10.5l-65 -65q-13 -13 -10.5 -34.5t19.5 -38.5l299 -299l-299 -299q-17 -17 -19.5 -38.5t10.5 -34.5l65 -65q13 -13 34.5 -10.5
t38.5 19.5l299 299l299 -299q17 -17 38.5 -19.5t34.5 10.5l65 65q13 13 10.5 34.5t-19.5 38.5z" />
    <glyph glyph-name="uniE64B" unicode="&#xe64b;" 
d="M949 377l-440 411l-441 -410q-6 -6 -6.5 -15t5.5 -15.5t15 -6.5t15 6l412 383l411 -384q6 -6 14 -6q10 0 16 7q6 6 6 15t-7 15zM815 368q-9 0 -15.5 -6t-6.5 -15v-327h-170v227h-228v-227h-171v327q0 9 -6 15t-15 6t-15.5 -6t-6.5 -15v-370h257v228h142v-228h256v370
q0 9 -6 15t-15 6zM665 674h128v-114q0 -9 6.5 -15t15.5 -6t15 6t6 15v157h-171q-9 0 -15 -6.5t-6 -15.5t6 -15t15 -6zM665 674z" />
    <glyph glyph-name="uniE64C" unicode="&#xe64c;" 
d="M511 -66q-91 0 -174.5 35.5t-143.5 95.5t-95.5 143.5t-35.5 174.5t35.5 174t95.5 143t143.5 95.5t174.5 35.5t174 -35.5t143 -95.5t95.5 -143t35.5 -174t-35.5 -174.5t-95.5 -143.5t-143 -95.5t-174 -35.5zM511 795q-112 0 -207 -55.5t-150 -150.5t-55 -206.5t55 -206.5
t150 -150t206.5 -55t206.5 55t150.5 150t55.5 206.5t-55.5 206.5t-150.5 150.5t-206 55.5zM511 795zM423 147q-10 0 -19.5 2t-25 12t-27 26t-21 48t-11.5 75q-1 19 4 40.5t24.5 47t50.5 37.5q9 4 15.5 -3.5t1.5 -15.5q-21 -36 -14 -55q1 -4 5 -6l31 1q1 51 -19 109v2
q-1 5 -2 12.5t1 26.5t8 36.5t22 39t40 36.5q7 5 14.5 0.5t6.5 -12.5q1 -4 -0.5 -13.5t2.5 -29.5t10.5 -40.5t24 -45t43.5 -43.5q6 34 -27 64q-7 7 -2.5 16t14.5 7q6 -1 14 -4t27.5 -14t35.5 -25.5t32.5 -42.5t23.5 -63q1 -6 1.5 -15.5t-0.5 -33t-5.5 -45t-16 -48
t-29.5 -46.5q-4 -4 -11 -10.5t-30.5 -16.5t-50.5 -10q-17 0 -35 4q-7 1 -9.5 8t1.5 13q3 4 7 10t11 21.5t10.5 31t1 35.5t-12.5 37q-1 -22 -6 -43t-15.5 -45.5t-32 -43.5t-51.5 -27q-4 -1 -10 -1zM376 390q-15 -14 -22.5 -34.5t-7.5 -29.5v-14q2 -45 11.5 -75.5t23 -42.5
t23.5 -16.5t19 -4.5q3 0 4 1q27 8 46 28t26.5 40.5t10 45.5t2.5 35.5t-1 17.5q-1 9 7 13t15 -1q31 -26 40 -61.5t2.5 -63.5t-20.5 -54h9q21 0 39.5 7.5t24 12t8.5 8.5q16 17 26 40.5t13.5 43.5t4.5 41t0.5 29t-0.5 12q-14 70 -71 107q15 -38 -3 -69q-3 -4 -8.5 -5.5
t-10.5 1.5q-30 19 -52 44t-32.5 50.5t-15.5 45t-6 38.5q-20 -19 -30 -45t-8.5 -40.5t1.5 -21.5q26 -78 19 -131q-2 -11 -13 -12l-46 -2q-3 0 -5 1q-17 6 -23 23q-6 15 0 38zM376 390z" />
    <glyph glyph-name="uniE64D" unicode="&#xe64d;" 
d="M583 458q-30 28 -53 28q-26 0 -57 -28q-7 -8 -280 -254v-188q0 -13 9 -22t22 -9h173q7 0 11.5 4.5t4.5 11.5v134q0 7 4.5 11.5t10.5 4.5h195q7 0 11.5 -4.5t4.5 -11.5v-134q0 -7 4.5 -11.5t10.5 -4.5h177q13 0 22 9t9 22v187q-271 247 -279 255zM976 291.5
q-1 21.5 -20 38.5l-22 22q-17 17 -42 40.5t-55 52.5q-29 28 -61 58q-31 30 -62 59q-28 27 -54 52q-23 22 -42 40q-17 16 -22 20q-28 27 -67.5 26.5t-72.5 -33.5q-5 -4 -32 -29t-65 -61q-38 -35 -82 -75q-42 -38 -83 -76q-37 -34 -66 -61q-28 -25 -33 -30q-14 -14 -15 -36
t17 -38q16 -14 38 -13.5t36 11.5q4 3 26 23q23 21 52 48q31 28 66 61q36 32 68 62q31 29 57 53q24 22 33 30q27 24 55 25t56 -25q6 -5 30 -27q24 -23 55 -52q33 -31 68 -64q37 -34 68 -63q39 -36 55 -51q22 -21 27 -24q13 -12 35.5 -13t39.5 14q15 14 14 35.5z" />
    <glyph glyph-name="uniE64E" unicode="&#xe64e;" 
d="M1011 337l-476 408q-10 8 -23 8t-23 -8l-476 -408q-18 -16 -9.5 -39.5t32.5 -23.5h142v-392q0 -15 10.5 -25.5t25.5 -10.5h189q15 0 25 10.5t10 25.5v176h166v-176q0 -15 10.5 -25.5t24.5 -10.5h190q14 0 24.5 10.5t10.5 25.5v393h118q19 -2 33 14q10 11 9 24.5t-13 23.5
zM793 -83h-118v177q0 15 -10.5 25t-25.5 10h-236q-15 0 -25.5 -10t-10.5 -25v-177h-118v393q0 14 -10.5 24.5t-24.5 10.5h-82l380 326l377 -323h-73q-8 0 -16 -5.5t-8 -17.5v-50h1v-358z" />
    <glyph glyph-name="uniE64F" unicode="&#xe64f;" 
d="M230 705l121 120l442 -442l-442 -442l-121 120l322 322zM230 705z" />
    <glyph glyph-name="uniE650" unicode="&#xe650;" 
d="M469 621l304 -317l-334 -347l-60 62l305 316v-62l-305 317l60 62z" />
    <glyph glyph-name="uniE651" unicode="&#xe651;" horiz-adv-x="1040" 
d="M1004 553q-20 20 -48 20h-752q-15 0 -29 -6t-25 -17l-142 -146q-8 -7 -8 -18.5t8 -19.5l142 -147q10 -11 24.5 -17.5t29.5 -6.5h750q29 0 49.5 20.5t20.5 49.5v240q0 28 -20 48zM403 258h-41l-117 174v-174h-42v252h42l116 -174v174h42v-252zM636 258h-191v252h185v-41
h-141v-61h132v-40h-132v-69h147v-41zM898 258h-39l-52 187l-1 5q-1 -3 -2 -5l-52 -187h-41l-2 5l-65 247h45l38 -162q2 -11 4 -21q4 13 5 17l46 166h48l35 -126q8 -28 14 -55q2 11 5 22l39 159h44z" />
    <glyph glyph-name="uniE652" unicode="&#xe652;" 
d="M932.5 -121.5q-24.5 -24.5 -59.5 -24.5t-59 24l-147 149q-97 -63 -210 -63q-106 0 -196 52.5t-142 143t-52 197t52 197t142 143t196 52.5t195.5 -52.5t142 -143t52.5 -196.5q0 -114 -62 -211l147 -149q25 -24 25 -59t-24.5 -59.5zM456.5 637q-115.5 0 -197 -82
t-81.5 -198t81.5 -198.5t197 -82.5t197 82.5t81.5 198.5t-81.5 198t-197 82z" />
    <glyph glyph-name="uniE653" unicode="&#xe653;" 
d="M512 232q-93 0 -159 66t-66 159.5t66 159.5t159 66t159 -66t66 -159.5t-66 -159.5t-159 -66zM512 636q-74 0 -126 -52.5t-52 -126t52 -126t126 -52.5t126 52.5t52 126t-52 126t-126 52.5zM856 -65h-47q0 122 -86.5 209t-209 87t-209 -87t-86.5 -209h-47q0 70 26 133
q26 62 73.5 109.5t109.5 73.5q63 27 133 27t133 -27q62 -26 109.5 -73.5t73.5 -109.5q27 -63 27 -133z" />
    <glyph glyph-name="uniE654" unicode="&#xe654;" 
d="M767 387h129v-382h-129v382zM342 472h127v-467h-127v467zM555 599h127v-594h-127v594zM128 302h129v-297h-129v297z" />
    <glyph glyph-name="uniE655" unicode="&#xe655;" 
d="M231 18q-77 77 -104 179.5t0 205t103.5 179t179 103.5t205.5 0t179.5 -103.5t103.5 -179t0 -205t-104 -179.5q-57 -57 -131.5 -87t-150 -30t-150 30t-131.5 87zM759 546q-67 67 -157 91t-179.5 0t-156.5 -91t-90.5 -156.5t0 -179.5t90.5 -157q50 -50 115 -76t131 -26
t131.5 26t115.5 76q67 67 90.5 157t0 179.5t-90.5 156.5zM488 224q-12 0 -20 11q-11 8 -11 20v290q0 10 7.5 17.5t17.5 7.5t17.5 -7.5t7.5 -17.5v-271h171q10 0 17.5 -7t7.5 -17.5t-7.5 -18t-17.5 -7.5h-190z" />
    <glyph glyph-name="uniE656" unicode="&#xe656;" horiz-adv-x="1536" 
d="M736 405q13 0 22.5 9.5t9.5 23t-9.5 22.5t-22.5 9h-128q-13 0 -22.5 -9t-9.5 -23v-256q0 -13 9.5 -22.5t22.5 -9.5h128q13 0 22.5 9.5t9.5 23t-9.5 22.5t-22.5 9h-96v64h96q13 0 22.5 9.5t9.5 23t-9.5 22.5t-22.5 9h-96v64h96zM480 467q-13 0 -22.5 -9t-9.5 -22v-159
l-134 178q-14 19 -36 11q-22 -7 -22 -30v-255q0 -13 9.5 -22.5t22.5 -9.5t22.5 9.5t9.5 22.5v160l134 -178q11 -14 26 -14q5 0 10 2q22 8 22 30v255q0 13 -9.5 22t-22.5 9zM1344 661h-1152q-53 0 -90.5 -37.5t-37.5 -90.5v-448q0 -52 37.5 -90t90.5 -38h1152q53 0 90.5 38
t37.5 90v448q0 53 -37.5 90.5t-90.5 37.5zM1408 85q0 -26 -19 -45t-45 -19h-1152q-26 0 -45 19t-19 45v448q0 27 19 45.5t45 18.5h1152q26 0 45 -18.5t19 -45.5v-448zM1251 469q-12 5 -24 -0.5t-16 -17.5l-65 -173l-66 173q-6 18 -29 18t-30 -18l-65 -173l-65 173
q-4 12 -16 17.5t-24.5 1t-17.5 -16.5t-1 -24l95 -251q6 -18 29 -18t30 18l65 173l65 -173q8 -20 29.5 -20t29.5 20l95 251q5 12 -0.5 24t-18.5 16z" />
    <glyph glyph-name="uniE657" unicode="&#xe657;" 
d="M822 735h-97q-18 0 -27 -12.5t-9 -31.5v-754h178v754q0 18 -13 31t-32 13zM556 469h-97q-18 0 -27 -12.5t-9 -31.5v-488h178v488q0 18 -13 31t-32 13zM290 203h-97q-18 0 -27 -12.5t-9 -31.5v-222h178v222q0 18 -13 31t-32 13z" />
    <glyph glyph-name="uniE658" unicode="&#xe658;" 
d="M409 78q0 -19 -13.5 -32t-31.5 -13q-19 0 -32 13t-13 32v408q0 19 13 32t32 13q18 0 31.5 -13t13.5 -32v-408zM261 78q0 -19 -13.5 -32t-31.5 -13q-19 0 -32 13t-13 32v224q0 18 13 31.5t32 13.5q18 0 31.5 -13.5t13.5 -31.5v-224zM557 78q0 -19 -13 -32t-32 -13t-32 13
t-13 32v612q0 19 13 32t32 13t32 -13t13 -32v-612zM705 78q0 -19 -13 -32t-32 -13q-18 0 -31.5 13t-13.5 32v284q0 18 13.5 31t31.5 13q19 0 32 -13t13 -31v-284zM853 78q0 -19 -13 -32t-32 -13q-18 0 -31.5 13t-13.5 32v174q0 19 13.5 32t31.5 13q19 0 32 -13t13 -32v-174z
" />
    <glyph glyph-name="uniE659" unicode="&#xe659;" 
d="M65 159v283h56l116 -189v189h53v-283h-57l-115 185v-185h-53zM350 159v283h210v-48h-152v-63h142v-47h-142v-77h158v-48h-216zM655 159l-68 283h58l43 -194l52 194h68l50 -198l43 198h58l-69 -283h-61l-56 212l-56 -212h-62z" />
    <glyph glyph-name="uniE65A" unicode="&#xe65a;" 
d="M537 549l-90 -310l-4 -15q-9 -30 -31 -30q-17 0 -24.5 13.5t-9.5 48.5l-10 188l-47 -161q-28 -96 -42.5 -131t-37.5 -60q-34 -37 -77 -37q-47 0 -76 41t-29 107q0 88 46 154q24 35 61 56.5t72 21.5q19 0 30 -10.5t11 -28.5q0 -19 -8.5 -28.5t-28.5 -11.5q-45 -6 -72 -29
q-22 -19 -35 -49.5t-13 -63.5q0 -36 12.5 -56.5t35.5 -20.5q27 0 47 32.5t43 113.5l88 304q12 41 36 41q28 0 30 -46l12 -208l60 208l3 12q9 29 31 29l9 1h45q31 0 31 -30q0 -21 -11 -33t-30 -12h-27zM588 290q0 -24 25 -24h66q28 0 28 -27q0 -19 -10 -30t-28 -11h-63
q-35 0 -53 24.5t-18 71.5q0 60 29 103.5t69 43.5q29 0 46.5 -21.5t17.5 -55.5q0 -43 -24 -63q-14 -11 -41 -11h-44zM598 346h25q24 0 23 15q-1 17 -15 17q-21 0 -33 -32zM877 314l52 96l4 7q13 24 29 24q10 0 16.5 -9t6.5 -23q0 -15 -13 -39l-84 -147q-16 -29 -34 -29
q-14 0 -24 15.5t-10 37.5q0 5 1 11l7 56l-45 -91q-14 -29 -32 -29q-15 0 -24.5 16t-9.5 42q0 4 1 6l6 131q1 25 9 38.5t22 13.5q21 0 21 -32v-12l-7 -87l50 99q16 32 37 32q12 0 19.5 -10t7.5 -28v-11z" />
    <glyph glyph-name="uniE65B" unicode="&#xe65b;" 
d="M187 152v263h-94v53h251v-53h-93v-263h-64zM364 308q0 48 15 81q11 24 29.5 43.5t40.5 28.5q30 12 68 12q70 0 112 -43t42 -120t-41.5 -120t-111.5 -43t-112 43t-42 118zM430 310q0 -53 25 -81t63 -28t62.5 27.5t24.5 82.5q0 54 -24 81t-63.5 27t-63.5 -27t-24 -82z
M721 152v316h102q58 0 76 -5q27 -7 45.5 -30.5t18.5 -61.5q0 -29 -10.5 -49t-27 -31.5t-33.5 -14.5q-23 -5 -66 -5h-41v-119h-64zM785 415v-90h34q38 0 51 5t20 15.5t7 24.5q0 17 -10 28.5t-26 13.5q-11 3 -46 3h-30z" />
  </font>
</defs>
</svg>
